<svg id="&#x421;&#x43B;&#x43E;&#x439;_1" enable-background="new 0 0 512.013 512.162" viewBox="0 0 512.013 512.162"  xmlns="http://www.w3.org/2000/svg"><path d="m504.675 202.062c-5.8-.2-11.7-.3-17.5-.2.3-3 .5-5.9.6-8.9 5.4-.7 10.8-1.3 16.2-2 4-.5 7.6-2.8 7.6-7.1 0-3.5-3.5-7.6-7.6-7.1l-17.1 2.1c-.1-.8-.2-1.6-.4-2.4-4-22.9-18.1-44.1-37.4-58.5-1.9-10.9-3.9-21.8-6-32.7-3.1-16-6.5-32-10.8-47.8-3.3-12.1-6.8-28.4-19.5-35-10.7-5.6-22.4-.6-32 4.6-8.8 4.7-17.2 10-25.6 15.4-11.8 7.7-23.4 15.7-34.8 23.9-19.4.2-38.6.3-57.6.3h-13.6c-19 0-38.2-.1-57.6-.3-11.4-8.2-23-16.2-34.8-23.9-8.3-5.4-16.8-10.7-25.6-15.4-9.6-5.1-21.3-10.2-32-4.6-12.6 6.8-16.2 23.2-19.5 35.1-4.3 15.8-7.6 31.8-10.8 47.8-2.1 10.9-4.2 21.8-6 32.7-19.3 14.4-33.5 35.6-37.4 58.5-.1.8-.3 1.6-.4 2.4l-17.1-2.1c-4.1-.5-7.5 3.6-7.6 7.1 0 4.2 3.5 6.6 7.6 7.1 5.4.7 10.8 1.3 16.2 2 0 3 .2 5.9.6 8.9-5.8-.1-11.7 0-17.5.2-9.7.4-9.7 14.5 0 14.1 6.8-.3 13.6-.3 20.3-.2 3.6 12.7 9.8 24.4 18.3 34.5-28.1 46.6-40.2 102.9-23.8 155 9.2 29.1 26.4 56.3 51.3 76 20.5 16.3 48.1 28.7 75.5 29.2 7.5.2 15-1.5 21.6-5 26.7 4 53.5 6.2 80.5 6.4h10.2c27-.2 53.8-2.4 80.5-6.4 6.6 3.6 14.1 5.3 21.6 5 27.4-.5 55-13 75.5-29.2 24.9-19.8 42.1-46.9 51.3-76 16.4-52.1 4.3-108.4-23.8-155 8.4-10.1 14.7-21.9 18.3-34.5 6.8-.2 13.6-.1 20.3.2 9.6.3 9.5-13.8-.2-14.2z" fill="#fdfdfd"/><path d="m110.893 36.924c-11.119 4.348-14.557 34.053-3.123 72.426 7.427-6.383 15.758-13.005 25.03-19.621 8.13-5.802 16.019-10.911 23.515-15.405-16.13-25.102-35.247-41.379-45.422-37.4z" fill="#fdcdce"/><path d="m355.698 74.323c7.495 4.495 15.384 9.604 23.515 15.405 9.272 6.617 17.603 13.239 25.03 19.621 11.434-38.374 7.996-68.078-3.123-72.426-10.175-3.978-29.292 12.299-45.422 37.4z" fill="#fdcdce"/><path d="m256.175 128.162c-1.1.9.1-.1 0 0z"/><path d="m255.775 128.162c-.2-.1 1 .9 0 0z"/><path d="m149.675 283.662c-8-5.2-15.6 7-7.6 12.2 8.2 5.3 15.5 12.3 19.7 20.9 2 4.1 4.8 11.1 1.8 15.3-3.2 4.5-11.6 5.2-16.8 5.1-11.6-.1-22.4-4.5-31.9-10.5-8.1-5.1-15.6 7.1-7.6 12.2 12.2 7.7 27 13 42 12.3 10.1-.4 21.8-3.5 27.4-12.1 5-7.8 3.4-17.9-.1-25.9-5.4-12.3-15.3-22-26.9-29.5z"/><path d="m397.075 326.562c-9.5 6-20.3 10.4-31.9 10.5-5.2 0-13.6-.6-16.8-5.1-2.9-4.2-.2-11.2 1.8-15.3 4.3-8.5 11.5-15.5 19.7-20.9 7.9-5.2.4-17.4-7.6-12.2-11.6 7.5-21.5 17.2-26.9 29.6-3.5 8-5.1 18.1-.1 25.9 5.5 8.6 17.3 11.7 27.4 12.1 15 .6 29.7-4.6 42-12.3 8-5.2.5-17.4-7.6-12.3z"/><path d="m415.875 64.062c-1.7-9.5-3.2-22-10.9-29-7.4-6.7-15.6-3.2-22.3 2.2-10 8.1-18.9 17.8-27.2 27.4-6 7 4.6 17.1 10.7 10 6.8-8 14.1-15.6 21.9-22.7.8-.7 3.9-3 5.9-4.7.6-.5 1.5-.4 2 .2.1.1.1.1.1.2 3.7 7.1 4.8 16.3 5.7 24.1 1.1 10.6.9 21.3-.7 31.9-.5 3.8 3.9 7.1 7.6 7.1 4.5 0 7-3.3 7.6-7.1 2-13.1 1.8-26.5-.4-39.6z"/><path d="m504.675 202.062c-5.8-.2-11.7-.3-17.5-.2.3-3 .5-5.9.6-8.9 5.4-.7 10.8-1.3 16.2-2 4-.5 7.6-2.8 7.6-7.1 0-3.5-3.5-7.6-7.6-7.1l-17.1 2.1c-.1-.8-.2-1.6-.4-2.4-4-22.9-18.1-44.1-37.4-58.5-1.9-10.9-3.9-21.8-6-32.7-3.1-16-6.5-32-10.8-47.8-3.3-12.1-6.8-28.4-19.5-35-10.7-5.6-22.4-.6-32 4.6-8.8 4.7-17.2 10-25.6 15.4-11.8 7.7-23.4 15.7-34.8 23.9-19.4.2-38.6.3-57.6.3h-13.6c-19 0-38.2-.1-57.6-.3-11.4-8.2-23-16.2-34.8-23.9-8.3-5.4-16.8-10.7-25.6-15.4-9.6-5.1-21.3-10.2-32-4.6-12.6 6.8-16.2 23.2-19.5 35.1-4.3 15.8-7.6 31.8-10.8 47.8-2.1 10.9-4.2 21.8-6 32.7-19.3 14.4-33.5 35.6-37.4 58.5-.1.8-.3 1.6-.4 2.4l-17.1-2.1c-4.1-.5-7.5 3.6-7.6 7.1 0 4.2 3.5 6.6 7.6 7.1 5.4.7 10.8 1.3 16.2 2 0 3 .2 5.9.6 8.9-5.8-.1-11.7 0-17.5.2-9.7.4-9.7 14.5 0 14.1 6.8-.3 13.6-.3 20.3-.2 3.6 12.7 9.8 24.4 18.3 34.5-28.1 46.6-40.2 102.9-23.8 155 9.2 29.1 26.4 56.3 51.3 76 20.5 16.3 48.1 28.7 75.5 29.2 7.5.2 15-1.5 21.6-5 26.7 4 53.5 6.2 80.5 6.4h10.2c27-.2 53.8-2.4 80.5-6.4 6.6 3.6 14.1 5.3 21.6 5 27.4-.5 55-13 75.5-29.2 24.9-19.8 42.1-46.9 51.3-76 16.4-52.1 4.3-108.4-23.8-155 8.4-10.1 14.7-21.9 18.3-34.5 6.8-.2 13.6-.1 20.3.2 9.6.3 9.5-13.8-.2-14.2zm-32.8.4c-9.7.6-19.5 1.6-29.1 3s-5.5 15 4 13.6c7.2-1.1 14.4-1.8 21.7-2.4-3.5 10.5-9.2 20-16.8 28.1-2.2 2.4-3 5.7-1.2 8.6 11.4 17.9 20 37.3 25.6 57.8 14.4 52.5 3.5 111.4-37.7 151.2-17.5 16.9-39.5 28.4-63.4 32.9-10.8 2.1-26.2 3.4-32-7.6-7.1-13.6 3.6-26.5 18-29.1 9.5-1.7 5.5-15.3-4-13.6-19.2 3.5-33.4 19.6-30.9 38.1.4 3.8 1.6 7.5 3.5 10.8-22.7 2.7-45.6 4.1-68.5 4.2h-10.2c-22.9-.2-45.8-1.6-68.5-4.2 1.8-3.4 3-7 3.5-10.8 2.5-18.5-11.7-34.6-30.9-38.1-9.5-1.7-13.6 11.9-4 13.6 14.4 2.6 25.1 15.5 18 29.1-5.8 11-21.2 9.8-32 7.6-23.9-4.5-45.9-15.9-63.4-32.9-41.2-39.7-52.1-98.7-37.7-151.2 5.6-20.4 14.3-39.9 25.6-57.8 1.8-2.8 1-6.2-1.2-8.6-7.5-8.1-13.2-17.7-16.8-28.1 7.3.5 14.5 1.3 21.7 2.4 9.5 1.4 13.6-12.2 4-13.6-9.7-1.4-19.4-2.4-29.1-3-.4-2.6-.6-5.1-.7-7.7 7 .9 14.1 1.7 21.1 2.6 4.1.5 7.5-3.6 7.6-7.1 0-4.2-3.5-6.6-7.6-7.1-6.8-.8-13.6-1.7-20.4-2.5.7-4.8 1.9-9.5 3.5-14 4.6-12.6 12.8-23.9 23-33.1 1.5-1.3 3-2.6 4.5-3.8.6-.5 1.2-.9 1.8-1.4.2-.1.3-.3.5-.4 3.3-2.8 3.7-4.7 4.4-8.5 4-23.3 8.5-46.7 14.2-69.7 2.3-9.3 5-21.1 9.1-28.7 1.3-2.4 2.9-5.3 5.7-6.5 4.5-1.9 9.8 1 13.7 3 6.9 3.5 13.6 7.5 20.1 11.6 13.8 8.6 27.3 17.8 40.5 27.3.8.6 1.7 1.2 2.5 1.8.5.5 1.1.9 1.7 1.2 5.7 2.3 13.9 1 20.1 1.1 14.6.1 29.2.3 43.8.3h13.6c14.6 0 29.2-.2 43.8-.3 6.1 0 14.4 1.3 20.1-1.1.6-.4 1.2-.8 1.7-1.2.8-.6 1.7-1.2 2.5-1.8 13.2-9.4 26.6-18.6 40.5-27.3 6.5-4.1 13.2-8.1 20.1-11.6 3.9-2 9.2-4.8 13.7-3 2.8 1.2 4.4 4 5.7 6.5 4.1 7.5 6.8 19.4 9.1 28.7 5.7 23 10.2 46.4 14.2 69.7.7 3.8 1.1 5.7 4.4 8.5.2.1.4.2.5.4.6.5 1.2.9 1.8 1.4 1.6 1.2 3.1 2.5 4.5 3.8 10.2 9.2 18.4 20.5 23 33.1 1.6 4.5 2.8 9.2 3.5 14-6.8.8-13.6 1.7-20.4 2.5-4 .5-7.6 2.8-7.6 7.1 0 3.5 3.5 7.6 7.6 7.1 7-.9 14.1-1.7 21.1-2.6-.1 2.6-.4 5.2-.7 7.7z"/><path d="m286.975 213.062c-1.1 7.2-7.3 10.8-14.4 9.7-3.3-.5-6.7-2.3-8.1-5.4-.2-.4-.3-.9-.4-1.3.4-4 .6-8 .4-12 3.9.4 8.2-2.1 8.9-6.3.6-1.4.6-3 .1-4.5-2.8-7.5-9.3-12.6-17.5-12.4-8.2-.3-14.7 4.9-17.5 12.4-.6 1.5-.5 3.1.1 4.5.7 4.2 5.1 6.7 8.9 6.3-.2 4 0 8 .4 12-.1.4-.2.9-.4 1.3-1.4 3.1-4.8 4.9-8.1 5.4-7.1 1.1-13.3-2.4-14.4-9.7-1.6-10.1-17-5.8-15.4 4.3 2.4 15.4 18.4 23.5 32.9 21 5-.9 9.7-3.1 13.5-6.4 3.8 3.3 8.5 5.5 13.5 6.4 14.5 2.5 30.5-5.6 32.9-21 1.6-10.1-13.8-14.4-15.4-4.3z"/><path d="m356.175 149.462c-14 0-25.4 14.2-25.4 31.7s11.4 31.7 25.4 31.7 25.4-14.2 25.4-31.7-11.4-31.7-25.4-31.7zm0 22.2c-4 0-7.3-3.3-7.3-7.3s3.3-7.3 7.3-7.3 7.3 3.3 7.3 7.3-3.3 7.3-7.3 7.3z"/><path d="m155.775 149.462c-14 0-25.4 14.2-25.4 31.7s11.4 31.7 25.4 31.7 25.4-14.2 25.4-31.7-11.4-31.7-25.4-31.7zm0 22.2c-4 0-7.3-3.3-7.3-7.3s3.3-7.3 7.3-7.3 7.3 3.3 7.3 7.3-3.3 7.3-7.3 7.3z"/><path d="m129.175 37.262c-6.7-5.4-14.9-8.8-22.3-2.2-7.8 7-9.3 19.5-10.8 29-2.2 13.1-2.3 26.5-.4 39.6.5 3.8 3.1 7 7.6 7.1 3.6 0 8-3.3 7.5-7.1-1.6-10.6-1.8-21.3-.7-31.9.9-7.8 2-17 5.7-24.1.4-.7 1.2-.9 1.9-.5.1 0 .1.1.2.1 2 1.7 5.1 3.9 5.9 4.7 7.7 7.2 15 14.7 21.9 22.7 6.1 7.1 16.7-3 10.7-10-8.3-9.7-17.2-19.4-27.2-27.4z"/><ellipse cx="121.619" cy="223.212" fill="#fdcdce" rx="17.472" ry="10.35"/><ellipse cx="390.394" cy="223.212" fill="#fdcdce" rx="17.472" ry="10.35"/><g fill="#fff"><circle cx="356.175" cy="164.362" r="7.3"/><circle cx="155.775" cy="164.362" r="7.3"/></g></svg>
