<svg id="Layer_1" enable-background="new 0 0 100 100" viewBox="0 0 100 100" xmlns="http://www.w3.org/2000/svg"><path d="m12.0089989 64.7365265h-3.748333l-3.5087495 17.4941635c-.4475918 2.2272491 2.0595832 3.6741638 5.3831658 3.6741638s5.8300829-1.4453278 5.3844166-3.6741638z"/><path d="m12.8900146 60.1799927c0 1.5200195-1.2300415 2.7600098-2.7600098 2.7600098-1.5200195 0-2.7600098-1.2399902-2.7600098-2.7600098 0-1.5300293 1.2399902-2.7700195 2.7600098-2.7700195 1.5299683-.0000001 2.7600098 1.2399902 2.7600098 2.7700195z"/><path d="m96.6323242 30.3348598-45.328331-15.9916639c-.9352493-.3307333-1.6699142-.3307333-2.6048317 0l-45.3316619 15.9916639c-.5751917.2024746-.8675001.616209-.8675001 1.2259159v4.3314171c0 .6103477.2923167 1.0250816.8675001 1.2275009l46.6325004 16.451664 46.6324997-16.451664c.5751953-.2041015.8675003-.6162109.8675003-1.2269172v-4.3314152c0-.6103497-.2923203-1.0240841-.8675003-1.2265835z"/><path d="m49.9989967 57.477356-1.2252502-.4329414-27.8341656-9.8199959v9.9033279c0 15.4075012 9.7999992 22.3508301 29.0591602 22.3508301 19.2583313 0 29.0575027-6.9433365 29.0575027-22.3508301v-9.9033279l-27.8325005 9.8199959z"/><path d="m11.9764986 44.0623589-3.6852493-1.2994995v13.1433296h3.6852493z"/></svg>