<?xml version="1.0" standalone="no"?>
<svg xmlns="http://www.w3.org/2000/svg" class="flex-no-shrink fill-current"      viewBox="0 0 500 500"><defs><clipPath id="clip-path-dot-color"><circle cx="34" cy="142" r="6" transform="rotate(0,34,142)"/><circle cx="34" cy="154" r="6" transform="rotate(0,34,154)"/><circle cx="34" cy="166" r="6" transform="rotate(0,34,166)"/><circle cx="34" cy="190" r="6" transform="rotate(0,34,190)"/><circle cx="34" cy="214" r="6" transform="rotate(0,34,214)"/><circle cx="34" cy="250" r="6" transform="rotate(0,34,250)"/><circle cx="34" cy="262" r="6" transform="rotate(0,34,262)"/><circle cx="34" cy="298" r="6" transform="rotate(0,34,298)"/><circle cx="34" cy="322" r="6" transform="rotate(0,34,322)"/><circle cx="34" cy="334" r="6" transform="rotate(0,34,334)"/><circle cx="34" cy="346" r="6" transform="rotate(0,34,346)"/><circle cx="34" cy="370" r="6" transform="rotate(0,34,370)"/><circle cx="46" cy="130" r="6" transform="rotate(0,46,130)"/><circle cx="46" cy="142" r="6" transform="rotate(0,46,142)"/><circle cx="46" cy="166" r="6" transform="rotate(0,46,166)"/><circle cx="46" cy="178" r="6" transform="rotate(0,46,178)"/><circle cx="46" cy="202" r="6" transform="rotate(0,46,202)"/><circle cx="46" cy="226" r="6" transform="rotate(0,46,226)"/><circle cx="46" cy="286" r="6" transform="rotate(0,46,286)"/><circle cx="46" cy="298" r="6" transform="rotate(0,46,298)"/><circle cx="46" cy="310" r="6" transform="rotate(0,46,310)"/><circle cx="46" cy="322" r="6" transform="rotate(0,46,322)"/><circle cx="46" cy="334" r="6" transform="rotate(0,46,334)"/><circle cx="46" cy="370" r="6" transform="rotate(0,46,370)"/><circle cx="58" cy="130" r="6" transform="rotate(0,58,130)"/><circle cx="58" cy="142" r="6" transform="rotate(0,58,142)"/><circle cx="58" cy="166" r="6" transform="rotate(0,58,166)"/><circle cx="58" cy="214" r="6" transform="rotate(0,58,214)"/><circle cx="58" cy="238" r="6" transform="rotate(0,58,238)"/><circle cx="58" cy="298" r="6" transform="rotate(0,58,298)"/><circle cx="58" cy="334" r="6" transform="rotate(0,58,334)"/><circle cx="58" cy="358" r="6" transform="rotate(0,58,358)"/><circle cx="58" cy="370" r="6" transform="rotate(0,58,370)"/><circle cx="70" cy="166" r="6" transform="rotate(0,70,166)"/><circle cx="70" cy="178" r="6" transform="rotate(0,70,178)"/><circle cx="70" cy="226" r="6" transform="rotate(0,70,226)"/><circle cx="70" cy="262" r="6" transform="rotate(0,70,262)"/><circle cx="70" cy="274" r="6" transform="rotate(0,70,274)"/><circle cx="70" cy="298" r="6" transform="rotate(0,70,298)"/><circle cx="70" cy="322" r="6" transform="rotate(0,70,322)"/><circle cx="70" cy="334" r="6" transform="rotate(0,70,334)"/><circle cx="70" cy="346" r="6" transform="rotate(0,70,346)"/><circle cx="70" cy="358" r="6" transform="rotate(0,70,358)"/><circle cx="82" cy="154" r="6" transform="rotate(0,82,154)"/><circle cx="82" cy="166" r="6" transform="rotate(0,82,166)"/><circle cx="82" cy="178" r="6" transform="rotate(0,82,178)"/><circle cx="82" cy="190" r="6" transform="rotate(0,82,190)"/><circle cx="82" cy="202" r="6" transform="rotate(0,82,202)"/><circle cx="82" cy="214" r="6" transform="rotate(0,82,214)"/><circle cx="82" cy="226" r="6" transform="rotate(0,82,226)"/><circle cx="82" cy="274" r="6" transform="rotate(0,82,274)"/><circle cx="82" cy="298" r="6" transform="rotate(0,82,298)"/><circle cx="82" cy="322" r="6" transform="rotate(0,82,322)"/><circle cx="82" cy="346" r="6" transform="rotate(0,82,346)"/><circle cx="82" cy="358" r="6" transform="rotate(0,82,358)"/><circle cx="94" cy="178" r="6" transform="rotate(0,94,178)"/><circle cx="94" cy="202" r="6" transform="rotate(0,94,202)"/><circle cx="94" cy="226" r="6" transform="rotate(0,94,226)"/><circle cx="94" cy="250" r="6" transform="rotate(0,94,250)"/><circle cx="94" cy="286" r="6" transform="rotate(0,94,286)"/><circle cx="94" cy="334" r="6" transform="rotate(0,94,334)"/><circle cx="106" cy="130" r="6" transform="rotate(0,106,130)"/><circle cx="106" cy="154" r="6" transform="rotate(0,106,154)"/><circle cx="106" cy="178" r="6" transform="rotate(0,106,178)"/><circle cx="106" cy="202" r="6" transform="rotate(0,106,202)"/><circle cx="106" cy="226" r="6" transform="rotate(0,106,226)"/><circle cx="106" cy="250" r="6" transform="rotate(0,106,250)"/><circle cx="106" cy="274" r="6" transform="rotate(0,106,274)"/><circle cx="106" cy="298" r="6" transform="rotate(0,106,298)"/><circle cx="106" cy="322" r="6" transform="rotate(0,106,322)"/><circle cx="106" cy="346" r="6" transform="rotate(0,106,346)"/><circle cx="106" cy="370" r="6" transform="rotate(0,106,370)"/><circle cx="118" cy="142" r="6" transform="rotate(0,118,142)"/><circle cx="118" cy="166" r="6" transform="rotate(0,118,166)"/><circle cx="118" cy="178" r="6" transform="rotate(0,118,178)"/><circle cx="118" cy="190" r="6" transform="rotate(0,118,190)"/><circle cx="118" cy="226" r="6" transform="rotate(0,118,226)"/><circle cx="118" cy="250" r="6" transform="rotate(0,118,250)"/><circle cx="118" cy="262" r="6" transform="rotate(0,118,262)"/><circle cx="118" cy="274" r="6" transform="rotate(0,118,274)"/><circle cx="118" cy="310" r="6" transform="rotate(0,118,310)"/><circle cx="118" cy="322" r="6" transform="rotate(0,118,322)"/><circle cx="118" cy="358" r="6" transform="rotate(0,118,358)"/><circle cx="118" cy="370" r="6" transform="rotate(0,118,370)"/><circle cx="130" cy="46" r="6" transform="rotate(0,130,46)"/><circle cx="130" cy="58" r="6" transform="rotate(0,130,58)"/><circle cx="130" cy="70" r="6" transform="rotate(0,130,70)"/><circle cx="130" cy="94" r="6" transform="rotate(0,130,94)"/><circle cx="130" cy="106" r="6" transform="rotate(0,130,106)"/><circle cx="130" cy="202" r="6" transform="rotate(0,130,202)"/><circle cx="130" cy="238" r="6" transform="rotate(0,130,238)"/><circle cx="130" cy="250" r="6" transform="rotate(0,130,250)"/><circle cx="130" cy="262" r="6" transform="rotate(0,130,262)"/><circle cx="130" cy="274" r="6" transform="rotate(0,130,274)"/><circle cx="130" cy="286" r="6" transform="rotate(0,130,286)"/><circle cx="130" cy="310" r="6" transform="rotate(0,130,310)"/><circle cx="130" cy="334" r="6" transform="rotate(0,130,334)"/><circle cx="130" cy="358" r="6" transform="rotate(0,130,358)"/><circle cx="130" cy="370" r="6" transform="rotate(0,130,370)"/><circle cx="130" cy="442" r="6" transform="rotate(0,130,442)"/><circle cx="130" cy="454" r="6" transform="rotate(0,130,454)"/><circle cx="142" cy="46" r="6" transform="rotate(0,142,46)"/><circle cx="142" cy="58" r="6" transform="rotate(0,142,58)"/><circle cx="142" cy="70" r="6" transform="rotate(0,142,70)"/><circle cx="142" cy="118" r="6" transform="rotate(0,142,118)"/><circle cx="142" cy="154" r="6" transform="rotate(0,142,154)"/><circle cx="142" cy="166" r="6" transform="rotate(0,142,166)"/><circle cx="142" cy="178" r="6" transform="rotate(0,142,178)"/><circle cx="142" cy="190" r="6" transform="rotate(0,142,190)"/><circle cx="142" cy="214" r="6" transform="rotate(0,142,214)"/><circle cx="142" cy="226" r="6" transform="rotate(0,142,226)"/><circle cx="142" cy="250" r="6" transform="rotate(0,142,250)"/><circle cx="142" cy="310" r="6" transform="rotate(0,142,310)"/><circle cx="142" cy="334" r="6" transform="rotate(0,142,334)"/><circle cx="142" cy="346" r="6" transform="rotate(0,142,346)"/><circle cx="142" cy="358" r="6" transform="rotate(0,142,358)"/><circle cx="142" cy="370" r="6" transform="rotate(0,142,370)"/><circle cx="142" cy="406" r="6" transform="rotate(0,142,406)"/><circle cx="142" cy="430" r="6" transform="rotate(0,142,430)"/><circle cx="154" cy="34" r="6" transform="rotate(0,154,34)"/><circle cx="154" cy="46" r="6" transform="rotate(0,154,46)"/><circle cx="154" cy="70" r="6" transform="rotate(0,154,70)"/><circle cx="154" cy="82" r="6" transform="rotate(0,154,82)"/><circle cx="154" cy="106" r="6" transform="rotate(0,154,106)"/><circle cx="154" cy="118" r="6" transform="rotate(0,154,118)"/><circle cx="154" cy="154" r="6" transform="rotate(0,154,154)"/><circle cx="154" cy="166" r="6" transform="rotate(0,154,166)"/><circle cx="154" cy="178" r="6" transform="rotate(0,154,178)"/><circle cx="154" cy="214" r="6" transform="rotate(0,154,214)"/><circle cx="154" cy="274" r="6" transform="rotate(0,154,274)"/><circle cx="154" cy="310" r="6" transform="rotate(0,154,310)"/><circle cx="154" cy="322" r="6" transform="rotate(0,154,322)"/><circle cx="154" cy="334" r="6" transform="rotate(0,154,334)"/><circle cx="154" cy="358" r="6" transform="rotate(0,154,358)"/><circle cx="154" cy="382" r="6" transform="rotate(0,154,382)"/><circle cx="154" cy="406" r="6" transform="rotate(0,154,406)"/><circle cx="154" cy="430" r="6" transform="rotate(0,154,430)"/><circle cx="166" cy="34" r="6" transform="rotate(0,166,34)"/><circle cx="166" cy="70" r="6" transform="rotate(0,166,70)"/><circle cx="166" cy="82" r="6" transform="rotate(0,166,82)"/><circle cx="166" cy="94" r="6" transform="rotate(0,166,94)"/><circle cx="166" cy="118" r="6" transform="rotate(0,166,118)"/><circle cx="166" cy="130" r="6" transform="rotate(0,166,130)"/><circle cx="166" cy="142" r="6" transform="rotate(0,166,142)"/><circle cx="166" cy="178" r="6" transform="rotate(0,166,178)"/><circle cx="166" cy="238" r="6" transform="rotate(0,166,238)"/><circle cx="166" cy="250" r="6" transform="rotate(0,166,250)"/><circle cx="166" cy="322" r="6" transform="rotate(0,166,322)"/><circle cx="166" cy="334" r="6" transform="rotate(0,166,334)"/><circle cx="166" cy="346" r="6" transform="rotate(0,166,346)"/><circle cx="166" cy="358" r="6" transform="rotate(0,166,358)"/><circle cx="166" cy="418" r="6" transform="rotate(0,166,418)"/><circle cx="166" cy="430" r="6" transform="rotate(0,166,430)"/><circle cx="166" cy="442" r="6" transform="rotate(0,166,442)"/><circle cx="166" cy="454" r="6" transform="rotate(0,166,454)"/><circle cx="178" cy="46" r="6" transform="rotate(0,178,46)"/><circle cx="178" cy="106" r="6" transform="rotate(0,178,106)"/><circle cx="178" cy="178" r="6" transform="rotate(0,178,178)"/><circle cx="178" cy="190" r="6" transform="rotate(0,178,190)"/><circle cx="178" cy="226" r="6" transform="rotate(0,178,226)"/><circle cx="178" cy="262" r="6" transform="rotate(0,178,262)"/><circle cx="178" cy="274" r="6" transform="rotate(0,178,274)"/><circle cx="178" cy="298" r="6" transform="rotate(0,178,298)"/><circle cx="178" cy="322" r="6" transform="rotate(0,178,322)"/><circle cx="178" cy="334" r="6" transform="rotate(0,178,334)"/><circle cx="178" cy="346" r="6" transform="rotate(0,178,346)"/><circle cx="178" cy="382" r="6" transform="rotate(0,178,382)"/><circle cx="178" cy="394" r="6" transform="rotate(0,178,394)"/><circle cx="178" cy="406" r="6" transform="rotate(0,178,406)"/><circle cx="178" cy="418" r="6" transform="rotate(0,178,418)"/><circle cx="178" cy="442" r="6" transform="rotate(0,178,442)"/><circle cx="178" cy="454" r="6" transform="rotate(0,178,454)"/><circle cx="190" cy="46" r="6" transform="rotate(0,190,46)"/><circle cx="190" cy="70" r="6" transform="rotate(0,190,70)"/><circle cx="190" cy="82" r="6" transform="rotate(0,190,82)"/><circle cx="190" cy="118" r="6" transform="rotate(0,190,118)"/><circle cx="190" cy="130" r="6" transform="rotate(0,190,130)"/><circle cx="190" cy="166" r="6" transform="rotate(0,190,166)"/><circle cx="190" cy="190" r="6" transform="rotate(0,190,190)"/><circle cx="190" cy="238" r="6" transform="rotate(0,190,238)"/><circle cx="190" cy="262" r="6" transform="rotate(0,190,262)"/><circle cx="190" cy="274" r="6" transform="rotate(0,190,274)"/><circle cx="190" cy="286" r="6" transform="rotate(0,190,286)"/><circle cx="190" cy="322" r="6" transform="rotate(0,190,322)"/><circle cx="190" cy="358" r="6" transform="rotate(0,190,358)"/><circle cx="190" cy="394" r="6" transform="rotate(0,190,394)"/><circle cx="190" cy="418" r="6" transform="rotate(0,190,418)"/><circle cx="190" cy="442" r="6" transform="rotate(0,190,442)"/><circle cx="190" cy="454" r="6" transform="rotate(0,190,454)"/><circle cx="190" cy="466" r="6" transform="rotate(0,190,466)"/><circle cx="202" cy="34" r="6" transform="rotate(0,202,34)"/><circle cx="202" cy="46" r="6" transform="rotate(0,202,46)"/><circle cx="202" cy="58" r="6" transform="rotate(0,202,58)"/><circle cx="202" cy="70" r="6" transform="rotate(0,202,70)"/><circle cx="202" cy="106" r="6" transform="rotate(0,202,106)"/><circle cx="202" cy="130" r="6" transform="rotate(0,202,130)"/><circle cx="202" cy="166" r="6" transform="rotate(0,202,166)"/><circle cx="202" cy="178" r="6" transform="rotate(0,202,178)"/><circle cx="202" cy="202" r="6" transform="rotate(0,202,202)"/><circle cx="202" cy="238" r="6" transform="rotate(0,202,238)"/><circle cx="202" cy="250" r="6" transform="rotate(0,202,250)"/><circle cx="202" cy="262" r="6" transform="rotate(0,202,262)"/><circle cx="202" cy="286" r="6" transform="rotate(0,202,286)"/><circle cx="202" cy="322" r="6" transform="rotate(0,202,322)"/><circle cx="202" cy="334" r="6" transform="rotate(0,202,334)"/><circle cx="202" cy="346" r="6" transform="rotate(0,202,346)"/><circle cx="202" cy="370" r="6" transform="rotate(0,202,370)"/><circle cx="202" cy="382" r="6" transform="rotate(0,202,382)"/><circle cx="202" cy="394" r="6" transform="rotate(0,202,394)"/><circle cx="202" cy="442" r="6" transform="rotate(0,202,442)"/><circle cx="202" cy="454" r="6" transform="rotate(0,202,454)"/><circle cx="214" cy="70" r="6" transform="rotate(0,214,70)"/><circle cx="214" cy="82" r="6" transform="rotate(0,214,82)"/><circle cx="214" cy="94" r="6" transform="rotate(0,214,94)"/><circle cx="214" cy="142" r="6" transform="rotate(0,214,142)"/><circle cx="214" cy="154" r="6" transform="rotate(0,214,154)"/><circle cx="214" cy="166" r="6" transform="rotate(0,214,166)"/><circle cx="214" cy="178" r="6" transform="rotate(0,214,178)"/><circle cx="214" cy="202" r="6" transform="rotate(0,214,202)"/><circle cx="214" cy="250" r="6" transform="rotate(0,214,250)"/><circle cx="214" cy="322" r="6" transform="rotate(0,214,322)"/><circle cx="214" cy="346" r="6" transform="rotate(0,214,346)"/><circle cx="214" cy="418" r="6" transform="rotate(0,214,418)"/><circle cx="214" cy="454" r="6" transform="rotate(0,214,454)"/><circle cx="214" cy="466" r="6" transform="rotate(0,214,466)"/><circle cx="226" cy="34" r="6" transform="rotate(0,226,34)"/><circle cx="226" cy="46" r="6" transform="rotate(0,226,46)"/><circle cx="226" cy="58" r="6" transform="rotate(0,226,58)"/><circle cx="226" cy="70" r="6" transform="rotate(0,226,70)"/><circle cx="226" cy="106" r="6" transform="rotate(0,226,106)"/><circle cx="226" cy="118" r="6" transform="rotate(0,226,118)"/><circle cx="226" cy="142" r="6" transform="rotate(0,226,142)"/><circle cx="226" cy="154" r="6" transform="rotate(0,226,154)"/><circle cx="226" cy="190" r="6" transform="rotate(0,226,190)"/><circle cx="226" cy="214" r="6" transform="rotate(0,226,214)"/><circle cx="226" cy="226" r="6" transform="rotate(0,226,226)"/><circle cx="226" cy="238" r="6" transform="rotate(0,226,238)"/><circle cx="226" cy="250" r="6" transform="rotate(0,226,250)"/><circle cx="226" cy="298" r="6" transform="rotate(0,226,298)"/><circle cx="226" cy="310" r="6" transform="rotate(0,226,310)"/><circle cx="226" cy="334" r="6" transform="rotate(0,226,334)"/><circle cx="226" cy="430" r="6" transform="rotate(0,226,430)"/><circle cx="226" cy="442" r="6" transform="rotate(0,226,442)"/><circle cx="238" cy="46" r="6" transform="rotate(0,238,46)"/><circle cx="238" cy="70" r="6" transform="rotate(0,238,70)"/><circle cx="238" cy="94" r="6" transform="rotate(0,238,94)"/><circle cx="238" cy="166" r="6" transform="rotate(0,238,166)"/><circle cx="238" cy="202" r="6" transform="rotate(0,238,202)"/><circle cx="238" cy="214" r="6" transform="rotate(0,238,214)"/><circle cx="238" cy="226" r="6" transform="rotate(0,238,226)"/><circle cx="238" cy="238" r="6" transform="rotate(0,238,238)"/><circle cx="238" cy="262" r="6" transform="rotate(0,238,262)"/><circle cx="238" cy="274" r="6" transform="rotate(0,238,274)"/><circle cx="238" cy="298" r="6" transform="rotate(0,238,298)"/><circle cx="238" cy="322" r="6" transform="rotate(0,238,322)"/><circle cx="238" cy="358" r="6" transform="rotate(0,238,358)"/><circle cx="238" cy="382" r="6" transform="rotate(0,238,382)"/><circle cx="238" cy="394" r="6" transform="rotate(0,238,394)"/><circle cx="238" cy="430" r="6" transform="rotate(0,238,430)"/><circle cx="238" cy="466" r="6" transform="rotate(0,238,466)"/><circle cx="250" cy="34" r="6" transform="rotate(0,250,34)"/><circle cx="250" cy="46" r="6" transform="rotate(0,250,46)"/><circle cx="250" cy="70" r="6" transform="rotate(0,250,70)"/><circle cx="250" cy="94" r="6" transform="rotate(0,250,94)"/><circle cx="250" cy="106" r="6" transform="rotate(0,250,106)"/><circle cx="250" cy="130" r="6" transform="rotate(0,250,130)"/><circle cx="250" cy="154" r="6" transform="rotate(0,250,154)"/><circle cx="250" cy="178" r="6" transform="rotate(0,250,178)"/><circle cx="250" cy="190" r="6" transform="rotate(0,250,190)"/><circle cx="250" cy="202" r="6" transform="rotate(0,250,202)"/><circle cx="250" cy="214" r="6" transform="rotate(0,250,214)"/><circle cx="250" cy="226" r="6" transform="rotate(0,250,226)"/><circle cx="250" cy="238" r="6" transform="rotate(0,250,238)"/><circle cx="250" cy="274" r="6" transform="rotate(0,250,274)"/><circle cx="250" cy="310" r="6" transform="rotate(0,250,310)"/><circle cx="250" cy="322" r="6" transform="rotate(0,250,322)"/><circle cx="250" cy="334" r="6" transform="rotate(0,250,334)"/><circle cx="250" cy="346" r="6" transform="rotate(0,250,346)"/><circle cx="250" cy="358" r="6" transform="rotate(0,250,358)"/><circle cx="250" cy="370" r="6" transform="rotate(0,250,370)"/><circle cx="250" cy="394" r="6" transform="rotate(0,250,394)"/><circle cx="250" cy="406" r="6" transform="rotate(0,250,406)"/><circle cx="250" cy="430" r="6" transform="rotate(0,250,430)"/><circle cx="250" cy="442" r="6" transform="rotate(0,250,442)"/><circle cx="250" cy="454" r="6" transform="rotate(0,250,454)"/><circle cx="250" cy="466" r="6" transform="rotate(0,250,466)"/><circle cx="262" cy="34" r="6" transform="rotate(0,262,34)"/><circle cx="262" cy="46" r="6" transform="rotate(0,262,46)"/><circle cx="262" cy="82" r="6" transform="rotate(0,262,82)"/><circle cx="262" cy="154" r="6" transform="rotate(0,262,154)"/><circle cx="262" cy="178" r="6" transform="rotate(0,262,178)"/><circle cx="262" cy="190" r="6" transform="rotate(0,262,190)"/><circle cx="262" cy="202" r="6" transform="rotate(0,262,202)"/><circle cx="262" cy="214" r="6" transform="rotate(0,262,214)"/><circle cx="262" cy="298" r="6" transform="rotate(0,262,298)"/><circle cx="262" cy="322" r="6" transform="rotate(0,262,322)"/><circle cx="262" cy="346" r="6" transform="rotate(0,262,346)"/><circle cx="262" cy="370" r="6" transform="rotate(0,262,370)"/><circle cx="262" cy="382" r="6" transform="rotate(0,262,382)"/><circle cx="262" cy="406" r="6" transform="rotate(0,262,406)"/><circle cx="262" cy="418" r="6" transform="rotate(0,262,418)"/><circle cx="262" cy="430" r="6" transform="rotate(0,262,430)"/><circle cx="262" cy="466" r="6" transform="rotate(0,262,466)"/><circle cx="274" cy="34" r="6" transform="rotate(0,274,34)"/><circle cx="274" cy="46" r="6" transform="rotate(0,274,46)"/><circle cx="274" cy="70" r="6" transform="rotate(0,274,70)"/><circle cx="274" cy="94" r="6" transform="rotate(0,274,94)"/><circle cx="274" cy="106" r="6" transform="rotate(0,274,106)"/><circle cx="274" cy="118" r="6" transform="rotate(0,274,118)"/><circle cx="274" cy="130" r="6" transform="rotate(0,274,130)"/><circle cx="274" cy="142" r="6" transform="rotate(0,274,142)"/><circle cx="274" cy="154" r="6" transform="rotate(0,274,154)"/><circle cx="274" cy="166" r="6" transform="rotate(0,274,166)"/><circle cx="274" cy="178" r="6" transform="rotate(0,274,178)"/><circle cx="274" cy="250" r="6" transform="rotate(0,274,250)"/><circle cx="274" cy="262" r="6" transform="rotate(0,274,262)"/><circle cx="274" cy="274" r="6" transform="rotate(0,274,274)"/><circle cx="274" cy="286" r="6" transform="rotate(0,274,286)"/><circle cx="274" cy="310" r="6" transform="rotate(0,274,310)"/><circle cx="274" cy="346" r="6" transform="rotate(0,274,346)"/><circle cx="274" cy="358" r="6" transform="rotate(0,274,358)"/><circle cx="274" cy="370" r="6" transform="rotate(0,274,370)"/><circle cx="274" cy="382" r="6" transform="rotate(0,274,382)"/><circle cx="274" cy="418" r="6" transform="rotate(0,274,418)"/><circle cx="286" cy="34" r="6" transform="rotate(0,286,34)"/><circle cx="286" cy="70" r="6" transform="rotate(0,286,70)"/><circle cx="286" cy="142" r="6" transform="rotate(0,286,142)"/><circle cx="286" cy="154" r="6" transform="rotate(0,286,154)"/><circle cx="286" cy="214" r="6" transform="rotate(0,286,214)"/><circle cx="286" cy="274" r="6" transform="rotate(0,286,274)"/><circle cx="286" cy="310" r="6" transform="rotate(0,286,310)"/><circle cx="286" cy="334" r="6" transform="rotate(0,286,334)"/><circle cx="286" cy="406" r="6" transform="rotate(0,286,406)"/><circle cx="298" cy="58" r="6" transform="rotate(0,298,58)"/><circle cx="298" cy="82" r="6" transform="rotate(0,298,82)"/><circle cx="298" cy="106" r="6" transform="rotate(0,298,106)"/><circle cx="298" cy="118" r="6" transform="rotate(0,298,118)"/><circle cx="298" cy="142" r="6" transform="rotate(0,298,142)"/><circle cx="298" cy="166" r="6" transform="rotate(0,298,166)"/><circle cx="298" cy="202" r="6" transform="rotate(0,298,202)"/><circle cx="298" cy="238" r="6" transform="rotate(0,298,238)"/><circle cx="298" cy="262" r="6" transform="rotate(0,298,262)"/><circle cx="298" cy="274" r="6" transform="rotate(0,298,274)"/><circle cx="298" cy="298" r="6" transform="rotate(0,298,298)"/><circle cx="298" cy="310" r="6" transform="rotate(0,298,310)"/><circle cx="298" cy="334" r="6" transform="rotate(0,298,334)"/><circle cx="298" cy="382" r="6" transform="rotate(0,298,382)"/><circle cx="298" cy="418" r="6" transform="rotate(0,298,418)"/><circle cx="298" cy="430" r="6" transform="rotate(0,298,430)"/><circle cx="310" cy="70" r="6" transform="rotate(0,310,70)"/><circle cx="310" cy="94" r="6" transform="rotate(0,310,94)"/><circle cx="310" cy="130" r="6" transform="rotate(0,310,130)"/><circle cx="310" cy="154" r="6" transform="rotate(0,310,154)"/><circle cx="310" cy="214" r="6" transform="rotate(0,310,214)"/><circle cx="310" cy="226" r="6" transform="rotate(0,310,226)"/><circle cx="310" cy="238" r="6" transform="rotate(0,310,238)"/><circle cx="310" cy="250" r="6" transform="rotate(0,310,250)"/><circle cx="310" cy="274" r="6" transform="rotate(0,310,274)"/><circle cx="310" cy="298" r="6" transform="rotate(0,310,298)"/><circle cx="310" cy="322" r="6" transform="rotate(0,310,322)"/><circle cx="310" cy="358" r="6" transform="rotate(0,310,358)"/><circle cx="310" cy="370" r="6" transform="rotate(0,310,370)"/><circle cx="310" cy="382" r="6" transform="rotate(0,310,382)"/><circle cx="310" cy="394" r="6" transform="rotate(0,310,394)"/><circle cx="310" cy="442" r="6" transform="rotate(0,310,442)"/><circle cx="310" cy="466" r="6" transform="rotate(0,310,466)"/><circle cx="322" cy="34" r="6" transform="rotate(0,322,34)"/><circle cx="322" cy="46" r="6" transform="rotate(0,322,46)"/><circle cx="322" cy="70" r="6" transform="rotate(0,322,70)"/><circle cx="322" cy="82" r="6" transform="rotate(0,322,82)"/><circle cx="322" cy="106" r="6" transform="rotate(0,322,106)"/><circle cx="322" cy="118" r="6" transform="rotate(0,322,118)"/><circle cx="322" cy="130" r="6" transform="rotate(0,322,130)"/><circle cx="322" cy="214" r="6" transform="rotate(0,322,214)"/><circle cx="322" cy="238" r="6" transform="rotate(0,322,238)"/><circle cx="322" cy="250" r="6" transform="rotate(0,322,250)"/><circle cx="322" cy="262" r="6" transform="rotate(0,322,262)"/><circle cx="322" cy="274" r="6" transform="rotate(0,322,274)"/><circle cx="322" cy="298" r="6" transform="rotate(0,322,298)"/><circle cx="322" cy="346" r="6" transform="rotate(0,322,346)"/><circle cx="322" cy="382" r="6" transform="rotate(0,322,382)"/><circle cx="322" cy="394" r="6" transform="rotate(0,322,394)"/><circle cx="322" cy="418" r="6" transform="rotate(0,322,418)"/><circle cx="322" cy="442" r="6" transform="rotate(0,322,442)"/><circle cx="322" cy="454" r="6" transform="rotate(0,322,454)"/><circle cx="334" cy="70" r="6" transform="rotate(0,334,70)"/><circle cx="334" cy="94" r="6" transform="rotate(0,334,94)"/><circle cx="334" cy="118" r="6" transform="rotate(0,334,118)"/><circle cx="334" cy="142" r="6" transform="rotate(0,334,142)"/><circle cx="334" cy="154" r="6" transform="rotate(0,334,154)"/><circle cx="334" cy="166" r="6" transform="rotate(0,334,166)"/><circle cx="334" cy="238" r="6" transform="rotate(0,334,238)"/><circle cx="334" cy="274" r="6" transform="rotate(0,334,274)"/><circle cx="334" cy="322" r="6" transform="rotate(0,334,322)"/><circle cx="334" cy="346" r="6" transform="rotate(0,334,346)"/><circle cx="334" cy="394" r="6" transform="rotate(0,334,394)"/><circle cx="334" cy="418" r="6" transform="rotate(0,334,418)"/><circle cx="334" cy="454" r="6" transform="rotate(0,334,454)"/><circle cx="334" cy="466" r="6" transform="rotate(0,334,466)"/><circle cx="346" cy="46" r="6" transform="rotate(0,346,46)"/><circle cx="346" cy="58" r="6" transform="rotate(0,346,58)"/><circle cx="346" cy="70" r="6" transform="rotate(0,346,70)"/><circle cx="346" cy="82" r="6" transform="rotate(0,346,82)"/><circle cx="346" cy="94" r="6" transform="rotate(0,346,94)"/><circle cx="346" cy="106" r="6" transform="rotate(0,346,106)"/><circle cx="346" cy="130" r="6" transform="rotate(0,346,130)"/><circle cx="346" cy="190" r="6" transform="rotate(0,346,190)"/><circle cx="346" cy="202" r="6" transform="rotate(0,346,202)"/><circle cx="346" cy="250" r="6" transform="rotate(0,346,250)"/><circle cx="346" cy="262" r="6" transform="rotate(0,346,262)"/><circle cx="346" cy="286" r="6" transform="rotate(0,346,286)"/><circle cx="346" cy="334" r="6" transform="rotate(0,346,334)"/><circle cx="346" cy="346" r="6" transform="rotate(0,346,346)"/><circle cx="346" cy="370" r="6" transform="rotate(0,346,370)"/><circle cx="346" cy="406" r="6" transform="rotate(0,346,406)"/><circle cx="346" cy="442" r="6" transform="rotate(0,346,442)"/><circle cx="358" cy="34" r="6" transform="rotate(0,358,34)"/><circle cx="358" cy="70" r="6" transform="rotate(0,358,70)"/><circle cx="358" cy="118" r="6" transform="rotate(0,358,118)"/><circle cx="358" cy="154" r="6" transform="rotate(0,358,154)"/><circle cx="358" cy="166" r="6" transform="rotate(0,358,166)"/><circle cx="358" cy="190" r="6" transform="rotate(0,358,190)"/><circle cx="358" cy="226" r="6" transform="rotate(0,358,226)"/><circle cx="358" cy="238" r="6" transform="rotate(0,358,238)"/><circle cx="358" cy="262" r="6" transform="rotate(0,358,262)"/><circle cx="358" cy="274" r="6" transform="rotate(0,358,274)"/><circle cx="358" cy="286" r="6" transform="rotate(0,358,286)"/><circle cx="358" cy="322" r="6" transform="rotate(0,358,322)"/><circle cx="358" cy="370" r="6" transform="rotate(0,358,370)"/><circle cx="358" cy="382" r="6" transform="rotate(0,358,382)"/><circle cx="358" cy="454" r="6" transform="rotate(0,358,454)"/><circle cx="358" cy="466" r="6" transform="rotate(0,358,466)"/><circle cx="370" cy="58" r="6" transform="rotate(0,370,58)"/><circle cx="370" cy="82" r="6" transform="rotate(0,370,82)"/><circle cx="370" cy="106" r="6" transform="rotate(0,370,106)"/><circle cx="370" cy="118" r="6" transform="rotate(0,370,118)"/><circle cx="370" cy="166" r="6" transform="rotate(0,370,166)"/><circle cx="370" cy="190" r="6" transform="rotate(0,370,190)"/><circle cx="370" cy="202" r="6" transform="rotate(0,370,202)"/><circle cx="370" cy="250" r="6" transform="rotate(0,370,250)"/><circle cx="370" cy="262" r="6" transform="rotate(0,370,262)"/><circle cx="370" cy="274" r="6" transform="rotate(0,370,274)"/><circle cx="370" cy="286" r="6" transform="rotate(0,370,286)"/><circle cx="370" cy="298" r="6" transform="rotate(0,370,298)"/><circle cx="370" cy="334" r="6" transform="rotate(0,370,334)"/><circle cx="370" cy="370" r="6" transform="rotate(0,370,370)"/><circle cx="370" cy="382" r="6" transform="rotate(0,370,382)"/><circle cx="370" cy="394" r="6" transform="rotate(0,370,394)"/><circle cx="370" cy="406" r="6" transform="rotate(0,370,406)"/><circle cx="370" cy="418" r="6" transform="rotate(0,370,418)"/><circle cx="370" cy="430" r="6" transform="rotate(0,370,430)"/><circle cx="370" cy="442" r="6" transform="rotate(0,370,442)"/><circle cx="370" cy="454" r="6" transform="rotate(0,370,454)"/><circle cx="370" cy="466" r="6" transform="rotate(0,370,466)"/><circle cx="382" cy="130" r="6" transform="rotate(0,382,130)"/><circle cx="382" cy="142" r="6" transform="rotate(0,382,142)"/><circle cx="382" cy="166" r="6" transform="rotate(0,382,166)"/><circle cx="382" cy="202" r="6" transform="rotate(0,382,202)"/><circle cx="382" cy="214" r="6" transform="rotate(0,382,214)"/><circle cx="382" cy="262" r="6" transform="rotate(0,382,262)"/><circle cx="382" cy="274" r="6" transform="rotate(0,382,274)"/><circle cx="382" cy="310" r="6" transform="rotate(0,382,310)"/><circle cx="382" cy="322" r="6" transform="rotate(0,382,322)"/><circle cx="382" cy="334" r="6" transform="rotate(0,382,334)"/><circle cx="382" cy="346" r="6" transform="rotate(0,382,346)"/><circle cx="382" cy="358" r="6" transform="rotate(0,382,358)"/><circle cx="382" cy="370" r="6" transform="rotate(0,382,370)"/><circle cx="382" cy="418" r="6" transform="rotate(0,382,418)"/><circle cx="382" cy="430" r="6" transform="rotate(0,382,430)"/><circle cx="382" cy="442" r="6" transform="rotate(0,382,442)"/><circle cx="382" cy="466" r="6" transform="rotate(0,382,466)"/><circle cx="394" cy="154" r="6" transform="rotate(0,394,154)"/><circle cx="394" cy="166" r="6" transform="rotate(0,394,166)"/><circle cx="394" cy="190" r="6" transform="rotate(0,394,190)"/><circle cx="394" cy="202" r="6" transform="rotate(0,394,202)"/><circle cx="394" cy="214" r="6" transform="rotate(0,394,214)"/><circle cx="394" cy="226" r="6" transform="rotate(0,394,226)"/><circle cx="394" cy="274" r="6" transform="rotate(0,394,274)"/><circle cx="394" cy="286" r="6" transform="rotate(0,394,286)"/><circle cx="394" cy="322" r="6" transform="rotate(0,394,322)"/><circle cx="394" cy="334" r="6" transform="rotate(0,394,334)"/><circle cx="394" cy="370" r="6" transform="rotate(0,394,370)"/><circle cx="394" cy="394" r="6" transform="rotate(0,394,394)"/><circle cx="394" cy="418" r="6" transform="rotate(0,394,418)"/><circle cx="394" cy="430" r="6" transform="rotate(0,394,430)"/><circle cx="394" cy="454" r="6" transform="rotate(0,394,454)"/><circle cx="394" cy="466" r="6" transform="rotate(0,394,466)"/><circle cx="406" cy="130" r="6" transform="rotate(0,406,130)"/><circle cx="406" cy="142" r="6" transform="rotate(0,406,142)"/><circle cx="406" cy="178" r="6" transform="rotate(0,406,178)"/><circle cx="406" cy="214" r="6" transform="rotate(0,406,214)"/><circle cx="406" cy="226" r="6" transform="rotate(0,406,226)"/><circle cx="406" cy="250" r="6" transform="rotate(0,406,250)"/><circle cx="406" cy="298" r="6" transform="rotate(0,406,298)"/><circle cx="406" cy="370" r="6" transform="rotate(0,406,370)"/><circle cx="406" cy="418" r="6" transform="rotate(0,406,418)"/><circle cx="406" cy="430" r="6" transform="rotate(0,406,430)"/><circle cx="406" cy="466" r="6" transform="rotate(0,406,466)"/><circle cx="418" cy="142" r="6" transform="rotate(0,418,142)"/><circle cx="418" cy="178" r="6" transform="rotate(0,418,178)"/><circle cx="418" cy="202" r="6" transform="rotate(0,418,202)"/><circle cx="418" cy="238" r="6" transform="rotate(0,418,238)"/><circle cx="418" cy="250" r="6" transform="rotate(0,418,250)"/><circle cx="418" cy="262" r="6" transform="rotate(0,418,262)"/><circle cx="418" cy="298" r="6" transform="rotate(0,418,298)"/><circle cx="418" cy="322" r="6" transform="rotate(0,418,322)"/><circle cx="418" cy="346" r="6" transform="rotate(0,418,346)"/><circle cx="418" cy="370" r="6" transform="rotate(0,418,370)"/><circle cx="418" cy="382" r="6" transform="rotate(0,418,382)"/><circle cx="418" cy="394" r="6" transform="rotate(0,418,394)"/><circle cx="418" cy="406" r="6" transform="rotate(0,418,406)"/><circle cx="418" cy="418" r="6" transform="rotate(0,418,418)"/><circle cx="418" cy="430" r="6" transform="rotate(0,418,430)"/><circle cx="430" cy="130" r="6" transform="rotate(0,430,130)"/><circle cx="430" cy="142" r="6" transform="rotate(0,430,142)"/><circle cx="430" cy="190" r="6" transform="rotate(0,430,190)"/><circle cx="430" cy="202" r="6" transform="rotate(0,430,202)"/><circle cx="430" cy="214" r="6" transform="rotate(0,430,214)"/><circle cx="430" cy="226" r="6" transform="rotate(0,430,226)"/><circle cx="430" cy="238" r="6" transform="rotate(0,430,238)"/><circle cx="430" cy="250" r="6" transform="rotate(0,430,250)"/><circle cx="430" cy="274" r="6" transform="rotate(0,430,274)"/><circle cx="430" cy="298" r="6" transform="rotate(0,430,298)"/><circle cx="430" cy="322" r="6" transform="rotate(0,430,322)"/><circle cx="430" cy="358" r="6" transform="rotate(0,430,358)"/><circle cx="430" cy="370" r="6" transform="rotate(0,430,370)"/><circle cx="430" cy="394" r="6" transform="rotate(0,430,394)"/><circle cx="430" cy="406" r="6" transform="rotate(0,430,406)"/><circle cx="430" cy="418" r="6" transform="rotate(0,430,418)"/><circle cx="430" cy="454" r="6" transform="rotate(0,430,454)"/><circle cx="442" cy="130" r="6" transform="rotate(0,442,130)"/><circle cx="442" cy="142" r="6" transform="rotate(0,442,142)"/><circle cx="442" cy="154" r="6" transform="rotate(0,442,154)"/><circle cx="442" cy="178" r="6" transform="rotate(0,442,178)"/><circle cx="442" cy="190" r="6" transform="rotate(0,442,190)"/><circle cx="442" cy="202" r="6" transform="rotate(0,442,202)"/><circle cx="442" cy="214" r="6" transform="rotate(0,442,214)"/><circle cx="442" cy="262" r="6" transform="rotate(0,442,262)"/><circle cx="442" cy="274" r="6" transform="rotate(0,442,274)"/><circle cx="442" cy="310" r="6" transform="rotate(0,442,310)"/><circle cx="442" cy="322" r="6" transform="rotate(0,442,322)"/><circle cx="442" cy="358" r="6" transform="rotate(0,442,358)"/><circle cx="442" cy="394" r="6" transform="rotate(0,442,394)"/><circle cx="442" cy="418" r="6" transform="rotate(0,442,418)"/><circle cx="442" cy="454" r="6" transform="rotate(0,442,454)"/><circle cx="454" cy="130" r="6" transform="rotate(0,454,130)"/><circle cx="454" cy="166" r="6" transform="rotate(0,454,166)"/><circle cx="454" cy="178" r="6" transform="rotate(0,454,178)"/><circle cx="454" cy="250" r="6" transform="rotate(0,454,250)"/><circle cx="454" cy="274" r="6" transform="rotate(0,454,274)"/><circle cx="454" cy="334" r="6" transform="rotate(0,454,334)"/><circle cx="454" cy="346" r="6" transform="rotate(0,454,346)"/><circle cx="454" cy="382" r="6" transform="rotate(0,454,382)"/><circle cx="454" cy="406" r="6" transform="rotate(0,454,406)"/><circle cx="454" cy="430" r="6" transform="rotate(0,454,430)"/><circle cx="454" cy="442" r="6" transform="rotate(0,454,442)"/><circle cx="466" cy="142" r="6" transform="rotate(0,466,142)"/><circle cx="466" cy="178" r="6" transform="rotate(0,466,178)"/><circle cx="466" cy="190" r="6" transform="rotate(0,466,190)"/><circle cx="466" cy="202" r="6" transform="rotate(0,466,202)"/><circle cx="466" cy="214" r="6" transform="rotate(0,466,214)"/><circle cx="466" cy="238" r="6" transform="rotate(0,466,238)"/><circle cx="466" cy="262" r="6" transform="rotate(0,466,262)"/><circle cx="466" cy="334" r="6" transform="rotate(0,466,334)"/><circle cx="466" cy="346" r="6" transform="rotate(0,466,346)"/><circle cx="466" cy="358" r="6" transform="rotate(0,466,358)"/><circle cx="466" cy="394" r="6" transform="rotate(0,466,394)"/><circle cx="466" cy="430" r="6" transform="rotate(0,466,430)"/><circle cx="466" cy="442" r="6" transform="rotate(0,466,442)"/><circle cx="466" cy="454" r="6" transform="rotate(0,466,454)"/><circle cx="466" cy="466" r="6" transform="rotate(0,466,466)"/></clipPath><clipPath id="clip-path-corners-square-color-0-0"><path clip-rule="evenodd" d="M 70 28a 42 42 0 1 0 0.1 0zm 0 12a 30 30 0 1 1 -0.1 0Z" transform="rotate(0,70,70)"/></clipPath><clipPath id="clip-path-corners-dot-color-0-0"><circle cx="70" cy="70" r="18" transform="rotate(0,70,70)"/></clipPath><clipPath id="clip-path-corners-square-color-1-0"><path clip-rule="evenodd" d="M 430 28a 42 42 0 1 0 0.1 0zm 0 12a 30 30 0 1 1 -0.1 0Z" transform="rotate(90,430,70)"/></clipPath><clipPath id="clip-path-corners-dot-color-1-0"><circle cx="430" cy="70" r="18" transform="rotate(90,430,70)"/></clipPath><clipPath id="clip-path-corners-square-color-0-1"><path clip-rule="evenodd" d="M 70 388a 42 42 0 1 0 0.1 0zm 0 12a 30 30 0 1 1 -0.1 0Z" transform="rotate(-90,70,430)"/></clipPath><clipPath id="clip-path-corners-dot-color-0-1"><circle cx="70" cy="430" r="18" transform="rotate(-90,70,430)"/></clipPath></defs><rect x="0" y="0" height="500" width="500" clip-path="url('#clip-path-background-color')" fill="#fff"/><rect x="0" y="0" height="500" width="500" clip-path="url('#clip-path-dot-color')" fill="#000000"/><rect x="28" y="28" height="84" width="84" clip-path="url('#clip-path-corners-square-color-0-0')" fill="#000000"/><rect x="52" y="52" height="36" width="36" clip-path="url('#clip-path-corners-dot-color-0-0')" fill="#000000"/><rect x="388" y="28" height="84" width="84" clip-path="url('#clip-path-corners-square-color-1-0')" fill="#000000"/><rect x="412" y="52" height="36" width="36" clip-path="url('#clip-path-corners-dot-color-1-0')" fill="#000000"/><rect x="28" y="388" height="84" width="84" clip-path="url('#clip-path-corners-square-color-0-1')" fill="#000000"/><rect x="52" y="412" height="36" width="36" clip-path="url('#clip-path-corners-dot-color-0-1')" fill="#000000"/></svg>
