<?xml version="1.0" standalone="no"?>
<svg xmlns="http://www.w3.org/2000/svg"       class="flex-no-shrink fill-current"      viewBox="0 0 500 500"

><defs><clipPath id="clip-path-dot-color"><circle cx="30" cy="110" r="5" transform="rotate(0,30,110)"/><circle cx="30" cy="120" r="5" transform="rotate(0,30,120)"/><circle cx="30" cy="190" r="5" transform="rotate(0,30,190)"/><circle cx="30" cy="220" r="5" transform="rotate(0,30,220)"/><circle cx="30" cy="230" r="5" transform="rotate(0,30,230)"/><circle cx="30" cy="260" r="5" transform="rotate(0,30,260)"/><circle cx="30" cy="330" r="5" transform="rotate(0,30,330)"/><circle cx="30" cy="350" r="5" transform="rotate(0,30,350)"/><circle cx="30" cy="390" r="5" transform="rotate(0,30,390)"/><circle cx="40" cy="120" r="5" transform="rotate(0,40,120)"/><circle cx="40" cy="130" r="5" transform="rotate(0,40,130)"/><circle cx="40" cy="150" r="5" transform="rotate(0,40,150)"/><circle cx="40" cy="190" r="5" transform="rotate(0,40,190)"/><circle cx="40" cy="220" r="5" transform="rotate(0,40,220)"/><circle cx="40" cy="230" r="5" transform="rotate(0,40,230)"/><circle cx="40" cy="250" r="5" transform="rotate(0,40,250)"/><circle cx="40" cy="260" r="5" transform="rotate(0,40,260)"/><circle cx="40" cy="290" r="5" transform="rotate(0,40,290)"/><circle cx="40" cy="300" r="5" transform="rotate(0,40,300)"/><circle cx="40" cy="310" r="5" transform="rotate(0,40,310)"/><circle cx="40" cy="320" r="5" transform="rotate(0,40,320)"/><circle cx="40" cy="340" r="5" transform="rotate(0,40,340)"/><circle cx="40" cy="380" r="5" transform="rotate(0,40,380)"/><circle cx="50" cy="130" r="5" transform="rotate(0,50,130)"/><circle cx="50" cy="150" r="5" transform="rotate(0,50,150)"/><circle cx="50" cy="160" r="5" transform="rotate(0,50,160)"/><circle cx="50" cy="180" r="5" transform="rotate(0,50,180)"/><circle cx="50" cy="220" r="5" transform="rotate(0,50,220)"/><circle cx="50" cy="250" r="5" transform="rotate(0,50,250)"/><circle cx="50" cy="260" r="5" transform="rotate(0,50,260)"/><circle cx="50" cy="300" r="5" transform="rotate(0,50,300)"/><circle cx="50" cy="310" r="5" transform="rotate(0,50,310)"/><circle cx="50" cy="340" r="5" transform="rotate(0,50,340)"/><circle cx="50" cy="360" r="5" transform="rotate(0,50,360)"/><circle cx="50" cy="380" r="5" transform="rotate(0,50,380)"/><circle cx="60" cy="140" r="5" transform="rotate(0,60,140)"/><circle cx="60" cy="150" r="5" transform="rotate(0,60,150)"/><circle cx="60" cy="160" r="5" transform="rotate(0,60,160)"/><circle cx="60" cy="180" r="5" transform="rotate(0,60,180)"/><circle cx="60" cy="190" r="5" transform="rotate(0,60,190)"/><circle cx="60" cy="200" r="5" transform="rotate(0,60,200)"/><circle cx="60" cy="220" r="5" transform="rotate(0,60,220)"/><circle cx="60" cy="230" r="5" transform="rotate(0,60,230)"/><circle cx="60" cy="280" r="5" transform="rotate(0,60,280)"/><circle cx="60" cy="300" r="5" transform="rotate(0,60,300)"/><circle cx="60" cy="320" r="5" transform="rotate(0,60,320)"/><circle cx="60" cy="330" r="5" transform="rotate(0,60,330)"/><circle cx="60" cy="380" r="5" transform="rotate(0,60,380)"/><circle cx="60" cy="390" r="5" transform="rotate(0,60,390)"/><circle cx="70" cy="110" r="5" transform="rotate(0,70,110)"/><circle cx="70" cy="130" r="5" transform="rotate(0,70,130)"/><circle cx="70" cy="140" r="5" transform="rotate(0,70,140)"/><circle cx="70" cy="160" r="5" transform="rotate(0,70,160)"/><circle cx="70" cy="170" r="5" transform="rotate(0,70,170)"/><circle cx="70" cy="220" r="5" transform="rotate(0,70,220)"/><circle cx="70" cy="230" r="5" transform="rotate(0,70,230)"/><circle cx="70" cy="240" r="5" transform="rotate(0,70,240)"/><circle cx="70" cy="250" r="5" transform="rotate(0,70,250)"/><circle cx="70" cy="260" r="5" transform="rotate(0,70,260)"/><circle cx="70" cy="270" r="5" transform="rotate(0,70,270)"/><circle cx="70" cy="320" r="5" transform="rotate(0,70,320)"/><circle cx="70" cy="330" r="5" transform="rotate(0,70,330)"/><circle cx="70" cy="340" r="5" transform="rotate(0,70,340)"/><circle cx="70" cy="370" r="5" transform="rotate(0,70,370)"/><circle cx="70" cy="380" r="5" transform="rotate(0,70,380)"/><circle cx="70" cy="390" r="5" transform="rotate(0,70,390)"/><circle cx="80" cy="110" r="5" transform="rotate(0,80,110)"/><circle cx="80" cy="130" r="5" transform="rotate(0,80,130)"/><circle cx="80" cy="150" r="5" transform="rotate(0,80,150)"/><circle cx="80" cy="160" r="5" transform="rotate(0,80,160)"/><circle cx="80" cy="170" r="5" transform="rotate(0,80,170)"/><circle cx="80" cy="180" r="5" transform="rotate(0,80,180)"/><circle cx="80" cy="190" r="5" transform="rotate(0,80,190)"/><circle cx="80" cy="230" r="5" transform="rotate(0,80,230)"/><circle cx="80" cy="270" r="5" transform="rotate(0,80,270)"/><circle cx="80" cy="280" r="5" transform="rotate(0,80,280)"/><circle cx="80" cy="300" r="5" transform="rotate(0,80,300)"/><circle cx="80" cy="310" r="5" transform="rotate(0,80,310)"/><circle cx="90" cy="110" r="5" transform="rotate(0,90,110)"/><circle cx="90" cy="130" r="5" transform="rotate(0,90,130)"/><circle cx="90" cy="150" r="5" transform="rotate(0,90,150)"/><circle cx="90" cy="170" r="5" transform="rotate(0,90,170)"/><circle cx="90" cy="190" r="5" transform="rotate(0,90,190)"/><circle cx="90" cy="210" r="5" transform="rotate(0,90,210)"/><circle cx="90" cy="230" r="5" transform="rotate(0,90,230)"/><circle cx="90" cy="250" r="5" transform="rotate(0,90,250)"/><circle cx="90" cy="270" r="5" transform="rotate(0,90,270)"/><circle cx="90" cy="290" r="5" transform="rotate(0,90,290)"/><circle cx="90" cy="310" r="5" transform="rotate(0,90,310)"/><circle cx="90" cy="330" r="5" transform="rotate(0,90,330)"/><circle cx="90" cy="350" r="5" transform="rotate(0,90,350)"/><circle cx="90" cy="370" r="5" transform="rotate(0,90,370)"/><circle cx="90" cy="390" r="5" transform="rotate(0,90,390)"/><circle cx="100" cy="150" r="5" transform="rotate(0,100,150)"/><circle cx="100" cy="170" r="5" transform="rotate(0,100,170)"/><circle cx="100" cy="180" r="5" transform="rotate(0,100,180)"/><circle cx="100" cy="210" r="5" transform="rotate(0,100,210)"/><circle cx="100" cy="220" r="5" transform="rotate(0,100,220)"/><circle cx="100" cy="230" r="5" transform="rotate(0,100,230)"/><circle cx="100" cy="270" r="5" transform="rotate(0,100,270)"/><circle cx="100" cy="280" r="5" transform="rotate(0,100,280)"/><circle cx="100" cy="300" r="5" transform="rotate(0,100,300)"/><circle cx="100" cy="310" r="5" transform="rotate(0,100,310)"/><circle cx="100" cy="330" r="5" transform="rotate(0,100,330)"/><circle cx="100" cy="350" r="5" transform="rotate(0,100,350)"/><circle cx="100" cy="370" r="5" transform="rotate(0,100,370)"/><circle cx="100" cy="390" r="5" transform="rotate(0,100,390)"/><circle cx="110" cy="40" r="5" transform="rotate(0,110,40)"/><circle cx="110" cy="50" r="5" transform="rotate(0,110,50)"/><circle cx="110" cy="60" r="5" transform="rotate(0,110,60)"/><circle cx="110" cy="70" r="5" transform="rotate(0,110,70)"/><circle cx="110" cy="80" r="5" transform="rotate(0,110,80)"/><circle cx="110" cy="90" r="5" transform="rotate(0,110,90)"/><circle cx="110" cy="100" r="5" transform="rotate(0,110,100)"/><circle cx="110" cy="120" r="5" transform="rotate(0,110,120)"/><circle cx="110" cy="130" r="5" transform="rotate(0,110,130)"/><circle cx="110" cy="150" r="5" transform="rotate(0,110,150)"/><circle cx="110" cy="160" r="5" transform="rotate(0,110,160)"/><circle cx="110" cy="170" r="5" transform="rotate(0,110,170)"/><circle cx="110" cy="180" r="5" transform="rotate(0,110,180)"/><circle cx="110" cy="220" r="5" transform="rotate(0,110,220)"/><circle cx="110" cy="230" r="5" transform="rotate(0,110,230)"/><circle cx="110" cy="240" r="5" transform="rotate(0,110,240)"/><circle cx="110" cy="250" r="5" transform="rotate(0,110,250)"/><circle cx="110" cy="260" r="5" transform="rotate(0,110,260)"/><circle cx="110" cy="270" r="5" transform="rotate(0,110,270)"/><circle cx="110" cy="280" r="5" transform="rotate(0,110,280)"/><circle cx="110" cy="320" r="5" transform="rotate(0,110,320)"/><circle cx="110" cy="330" r="5" transform="rotate(0,110,330)"/><circle cx="110" cy="340" r="5" transform="rotate(0,110,340)"/><circle cx="110" cy="360" r="5" transform="rotate(0,110,360)"/><circle cx="110" cy="370" r="5" transform="rotate(0,110,370)"/><circle cx="110" cy="420" r="5" transform="rotate(0,110,420)"/><circle cx="110" cy="430" r="5" transform="rotate(0,110,430)"/><circle cx="110" cy="470" r="5" transform="rotate(0,110,470)"/><circle cx="120" cy="50" r="5" transform="rotate(0,120,50)"/><circle cx="120" cy="170" r="5" transform="rotate(0,120,170)"/><circle cx="120" cy="180" r="5" transform="rotate(0,120,180)"/><circle cx="120" cy="190" r="5" transform="rotate(0,120,190)"/><circle cx="120" cy="200" r="5" transform="rotate(0,120,200)"/><circle cx="120" cy="230" r="5" transform="rotate(0,120,230)"/><circle cx="120" cy="260" r="5" transform="rotate(0,120,260)"/><circle cx="120" cy="280" r="5" transform="rotate(0,120,280)"/><circle cx="120" cy="310" r="5" transform="rotate(0,120,310)"/><circle cx="120" cy="320" r="5" transform="rotate(0,120,320)"/><circle cx="120" cy="330" r="5" transform="rotate(0,120,330)"/><circle cx="120" cy="390" r="5" transform="rotate(0,120,390)"/><circle cx="120" cy="400" r="5" transform="rotate(0,120,400)"/><circle cx="120" cy="420" r="5" transform="rotate(0,120,420)"/><circle cx="120" cy="440" r="5" transform="rotate(0,120,440)"/><circle cx="120" cy="450" r="5" transform="rotate(0,120,450)"/><circle cx="120" cy="460" r="5" transform="rotate(0,120,460)"/><circle cx="120" cy="470" r="5" transform="rotate(0,120,470)"/><circle cx="130" cy="30" r="5" transform="rotate(0,130,30)"/><circle cx="130" cy="50" r="5" transform="rotate(0,130,50)"/><circle cx="130" cy="60" r="5" transform="rotate(0,130,60)"/><circle cx="130" cy="70" r="5" transform="rotate(0,130,70)"/><circle cx="130" cy="80" r="5" transform="rotate(0,130,80)"/><circle cx="130" cy="90" r="5" transform="rotate(0,130,90)"/><circle cx="130" cy="100" r="5" transform="rotate(0,130,100)"/><circle cx="130" cy="110" r="5" transform="rotate(0,130,110)"/><circle cx="130" cy="130" r="5" transform="rotate(0,130,130)"/><circle cx="130" cy="150" r="5" transform="rotate(0,130,150)"/><circle cx="130" cy="160" r="5" transform="rotate(0,130,160)"/><circle cx="130" cy="170" r="5" transform="rotate(0,130,170)"/><circle cx="130" cy="190" r="5" transform="rotate(0,130,190)"/><circle cx="130" cy="200" r="5" transform="rotate(0,130,200)"/><circle cx="130" cy="220" r="5" transform="rotate(0,130,220)"/><circle cx="130" cy="250" r="5" transform="rotate(0,130,250)"/><circle cx="130" cy="290" r="5" transform="rotate(0,130,290)"/><circle cx="130" cy="300" r="5" transform="rotate(0,130,300)"/><circle cx="130" cy="340" r="5" transform="rotate(0,130,340)"/><circle cx="130" cy="360" r="5" transform="rotate(0,130,360)"/><circle cx="130" cy="370" r="5" transform="rotate(0,130,370)"/><circle cx="130" cy="380" r="5" transform="rotate(0,130,380)"/><circle cx="130" cy="390" r="5" transform="rotate(0,130,390)"/><circle cx="130" cy="400" r="5" transform="rotate(0,130,400)"/><circle cx="130" cy="410" r="5" transform="rotate(0,130,410)"/><circle cx="130" cy="450" r="5" transform="rotate(0,130,450)"/><circle cx="140" cy="30" r="5" transform="rotate(0,140,30)"/><circle cx="140" cy="60" r="5" transform="rotate(0,140,60)"/><circle cx="140" cy="100" r="5" transform="rotate(0,140,100)"/><circle cx="140" cy="110" r="5" transform="rotate(0,140,110)"/><circle cx="140" cy="160" r="5" transform="rotate(0,140,160)"/><circle cx="140" cy="180" r="5" transform="rotate(0,140,180)"/><circle cx="140" cy="200" r="5" transform="rotate(0,140,200)"/><circle cx="140" cy="210" r="5" transform="rotate(0,140,210)"/><circle cx="140" cy="240" r="5" transform="rotate(0,140,240)"/><circle cx="140" cy="250" r="5" transform="rotate(0,140,250)"/><circle cx="140" cy="260" r="5" transform="rotate(0,140,260)"/><circle cx="140" cy="270" r="5" transform="rotate(0,140,270)"/><circle cx="140" cy="280" r="5" transform="rotate(0,140,280)"/><circle cx="140" cy="290" r="5" transform="rotate(0,140,290)"/><circle cx="140" cy="300" r="5" transform="rotate(0,140,300)"/><circle cx="140" cy="310" r="5" transform="rotate(0,140,310)"/><circle cx="140" cy="320" r="5" transform="rotate(0,140,320)"/><circle cx="140" cy="330" r="5" transform="rotate(0,140,330)"/><circle cx="140" cy="340" r="5" transform="rotate(0,140,340)"/><circle cx="140" cy="350" r="5" transform="rotate(0,140,350)"/><circle cx="140" cy="370" r="5" transform="rotate(0,140,370)"/><circle cx="140" cy="380" r="5" transform="rotate(0,140,380)"/><circle cx="140" cy="420" r="5" transform="rotate(0,140,420)"/><circle cx="140" cy="430" r="5" transform="rotate(0,140,430)"/><circle cx="140" cy="440" r="5" transform="rotate(0,140,440)"/><circle cx="140" cy="450" r="5" transform="rotate(0,140,450)"/><circle cx="140" cy="470" r="5" transform="rotate(0,140,470)"/><circle cx="150" cy="40" r="5" transform="rotate(0,150,40)"/><circle cx="150" cy="50" r="5" transform="rotate(0,150,50)"/><circle cx="150" cy="90" r="5" transform="rotate(0,150,90)"/><circle cx="150" cy="100" r="5" transform="rotate(0,150,100)"/><circle cx="150" cy="130" r="5" transform="rotate(0,150,130)"/><circle cx="150" cy="140" r="5" transform="rotate(0,150,140)"/><circle cx="150" cy="170" r="5" transform="rotate(0,150,170)"/><circle cx="150" cy="180" r="5" transform="rotate(0,150,180)"/><circle cx="150" cy="210" r="5" transform="rotate(0,150,210)"/><circle cx="150" cy="220" r="5" transform="rotate(0,150,220)"/><circle cx="150" cy="230" r="5" transform="rotate(0,150,230)"/><circle cx="150" cy="240" r="5" transform="rotate(0,150,240)"/><circle cx="150" cy="250" r="5" transform="rotate(0,150,250)"/><circle cx="150" cy="270" r="5" transform="rotate(0,150,270)"/><circle cx="150" cy="280" r="5" transform="rotate(0,150,280)"/><circle cx="150" cy="320" r="5" transform="rotate(0,150,320)"/><circle cx="150" cy="330" r="5" transform="rotate(0,150,330)"/><circle cx="150" cy="340" r="5" transform="rotate(0,150,340)"/><circle cx="150" cy="360" r="5" transform="rotate(0,150,360)"/><circle cx="150" cy="370" r="5" transform="rotate(0,150,370)"/><circle cx="150" cy="380" r="5" transform="rotate(0,150,380)"/><circle cx="150" cy="400" r="5" transform="rotate(0,150,400)"/><circle cx="160" cy="30" r="5" transform="rotate(0,160,30)"/><circle cx="160" cy="40" r="5" transform="rotate(0,160,40)"/><circle cx="160" cy="60" r="5" transform="rotate(0,160,60)"/><circle cx="160" cy="70" r="5" transform="rotate(0,160,70)"/><circle cx="160" cy="110" r="5" transform="rotate(0,160,110)"/><circle cx="160" cy="120" r="5" transform="rotate(0,160,120)"/><circle cx="160" cy="140" r="5" transform="rotate(0,160,140)"/><circle cx="160" cy="160" r="5" transform="rotate(0,160,160)"/><circle cx="160" cy="190" r="5" transform="rotate(0,160,190)"/><circle cx="160" cy="210" r="5" transform="rotate(0,160,210)"/><circle cx="160" cy="220" r="5" transform="rotate(0,160,220)"/><circle cx="160" cy="280" r="5" transform="rotate(0,160,280)"/><circle cx="160" cy="320" r="5" transform="rotate(0,160,320)"/><circle cx="160" cy="330" r="5" transform="rotate(0,160,330)"/><circle cx="160" cy="370" r="5" transform="rotate(0,160,370)"/><circle cx="160" cy="390" r="5" transform="rotate(0,160,390)"/><circle cx="160" cy="400" r="5" transform="rotate(0,160,400)"/><circle cx="160" cy="430" r="5" transform="rotate(0,160,430)"/><circle cx="160" cy="450" r="5" transform="rotate(0,160,450)"/><circle cx="160" cy="460" r="5" transform="rotate(0,160,460)"/><circle cx="160" cy="470" r="5" transform="rotate(0,160,470)"/><circle cx="170" cy="60" r="5" transform="rotate(0,170,60)"/><circle cx="170" cy="80" r="5" transform="rotate(0,170,80)"/><circle cx="170" cy="90" r="5" transform="rotate(0,170,90)"/><circle cx="170" cy="130" r="5" transform="rotate(0,170,130)"/><circle cx="170" cy="150" r="5" transform="rotate(0,170,150)"/><circle cx="170" cy="160" r="5" transform="rotate(0,170,160)"/><circle cx="170" cy="170" r="5" transform="rotate(0,170,170)"/><circle cx="170" cy="180" r="5" transform="rotate(0,170,180)"/><circle cx="170" cy="200" r="5" transform="rotate(0,170,200)"/><circle cx="170" cy="210" r="5" transform="rotate(0,170,210)"/><circle cx="170" cy="220" r="5" transform="rotate(0,170,220)"/><circle cx="170" cy="240" r="5" transform="rotate(0,170,240)"/><circle cx="170" cy="250" r="5" transform="rotate(0,170,250)"/><circle cx="170" cy="260" r="5" transform="rotate(0,170,260)"/><circle cx="170" cy="290" r="5" transform="rotate(0,170,290)"/><circle cx="170" cy="350" r="5" transform="rotate(0,170,350)"/><circle cx="170" cy="360" r="5" transform="rotate(0,170,360)"/><circle cx="170" cy="390" r="5" transform="rotate(0,170,390)"/><circle cx="170" cy="410" r="5" transform="rotate(0,170,410)"/><circle cx="170" cy="430" r="5" transform="rotate(0,170,430)"/><circle cx="170" cy="450" r="5" transform="rotate(0,170,450)"/><circle cx="180" cy="30" r="5" transform="rotate(0,180,30)"/><circle cx="180" cy="100" r="5" transform="rotate(0,180,100)"/><circle cx="180" cy="180" r="5" transform="rotate(0,180,180)"/><circle cx="180" cy="190" r="5" transform="rotate(0,180,190)"/><circle cx="180" cy="210" r="5" transform="rotate(0,180,210)"/><circle cx="180" cy="230" r="5" transform="rotate(0,180,230)"/><circle cx="180" cy="250" r="5" transform="rotate(0,180,250)"/><circle cx="180" cy="280" r="5" transform="rotate(0,180,280)"/><circle cx="180" cy="290" r="5" transform="rotate(0,180,290)"/><circle cx="180" cy="310" r="5" transform="rotate(0,180,310)"/><circle cx="180" cy="320" r="5" transform="rotate(0,180,320)"/><circle cx="180" cy="350" r="5" transform="rotate(0,180,350)"/><circle cx="180" cy="360" r="5" transform="rotate(0,180,360)"/><circle cx="180" cy="370" r="5" transform="rotate(0,180,370)"/><circle cx="180" cy="380" r="5" transform="rotate(0,180,380)"/><circle cx="180" cy="390" r="5" transform="rotate(0,180,390)"/><circle cx="180" cy="400" r="5" transform="rotate(0,180,400)"/><circle cx="180" cy="420" r="5" transform="rotate(0,180,420)"/><circle cx="180" cy="430" r="5" transform="rotate(0,180,430)"/><circle cx="180" cy="450" r="5" transform="rotate(0,180,450)"/><circle cx="190" cy="30" r="5" transform="rotate(0,190,30)"/><circle cx="190" cy="40" r="5" transform="rotate(0,190,40)"/><circle cx="190" cy="50" r="5" transform="rotate(0,190,50)"/><circle cx="190" cy="60" r="5" transform="rotate(0,190,60)"/><circle cx="190" cy="70" r="5" transform="rotate(0,190,70)"/><circle cx="190" cy="80" r="5" transform="rotate(0,190,80)"/><circle cx="190" cy="90" r="5" transform="rotate(0,190,90)"/><circle cx="190" cy="100" r="5" transform="rotate(0,190,100)"/><circle cx="190" cy="110" r="5" transform="rotate(0,190,110)"/><circle cx="190" cy="120" r="5" transform="rotate(0,190,120)"/><circle cx="190" cy="150" r="5" transform="rotate(0,190,150)"/><circle cx="190" cy="160" r="5" transform="rotate(0,190,160)"/><circle cx="190" cy="170" r="5" transform="rotate(0,190,170)"/><circle cx="190" cy="190" r="5" transform="rotate(0,190,190)"/><circle cx="190" cy="200" r="5" transform="rotate(0,190,200)"/><circle cx="190" cy="220" r="5" transform="rotate(0,190,220)"/><circle cx="190" cy="240" r="5" transform="rotate(0,190,240)"/><circle cx="190" cy="260" r="5" transform="rotate(0,190,260)"/><circle cx="190" cy="270" r="5" transform="rotate(0,190,270)"/><circle cx="190" cy="290" r="5" transform="rotate(0,190,290)"/><circle cx="190" cy="300" r="5" transform="rotate(0,190,300)"/><circle cx="190" cy="330" r="5" transform="rotate(0,190,330)"/><circle cx="190" cy="340" r="5" transform="rotate(0,190,340)"/><circle cx="190" cy="360" r="5" transform="rotate(0,190,360)"/><circle cx="190" cy="370" r="5" transform="rotate(0,190,370)"/><circle cx="190" cy="380" r="5" transform="rotate(0,190,380)"/><circle cx="190" cy="400" r="5" transform="rotate(0,190,400)"/><circle cx="190" cy="410" r="5" transform="rotate(0,190,410)"/><circle cx="190" cy="440" r="5" transform="rotate(0,190,440)"/><circle cx="200" cy="50" r="5" transform="rotate(0,200,50)"/><circle cx="200" cy="80" r="5" transform="rotate(0,200,80)"/><circle cx="200" cy="110" r="5" transform="rotate(0,200,110)"/><circle cx="200" cy="120" r="5" transform="rotate(0,200,120)"/><circle cx="200" cy="130" r="5" transform="rotate(0,200,130)"/><circle cx="200" cy="140" r="5" transform="rotate(0,200,140)"/><circle cx="200" cy="150" r="5" transform="rotate(0,200,150)"/><circle cx="200" cy="190" r="5" transform="rotate(0,200,190)"/><circle cx="200" cy="210" r="5" transform="rotate(0,200,210)"/><circle cx="200" cy="220" r="5" transform="rotate(0,200,220)"/><circle cx="200" cy="230" r="5" transform="rotate(0,200,230)"/><circle cx="200" cy="250" r="5" transform="rotate(0,200,250)"/><circle cx="200" cy="270" r="5" transform="rotate(0,200,270)"/><circle cx="200" cy="280" r="5" transform="rotate(0,200,280)"/><circle cx="200" cy="320" r="5" transform="rotate(0,200,320)"/><circle cx="200" cy="330" r="5" transform="rotate(0,200,330)"/><circle cx="200" cy="350" r="5" transform="rotate(0,200,350)"/><circle cx="200" cy="360" r="5" transform="rotate(0,200,360)"/><circle cx="200" cy="390" r="5" transform="rotate(0,200,390)"/><circle cx="200" cy="400" r="5" transform="rotate(0,200,400)"/><circle cx="200" cy="420" r="5" transform="rotate(0,200,420)"/><circle cx="200" cy="450" r="5" transform="rotate(0,200,450)"/><circle cx="200" cy="470" r="5" transform="rotate(0,200,470)"/><circle cx="210" cy="40" r="5" transform="rotate(0,210,40)"/><circle cx="210" cy="80" r="5" transform="rotate(0,210,80)"/><circle cx="210" cy="90" r="5" transform="rotate(0,210,90)"/><circle cx="210" cy="120" r="5" transform="rotate(0,210,120)"/><circle cx="210" cy="130" r="5" transform="rotate(0,210,130)"/><circle cx="210" cy="140" r="5" transform="rotate(0,210,140)"/><circle cx="210" cy="150" r="5" transform="rotate(0,210,150)"/><circle cx="210" cy="160" r="5" transform="rotate(0,210,160)"/><circle cx="210" cy="170" r="5" transform="rotate(0,210,170)"/><circle cx="210" cy="190" r="5" transform="rotate(0,210,190)"/><circle cx="210" cy="210" r="5" transform="rotate(0,210,210)"/><circle cx="210" cy="230" r="5" transform="rotate(0,210,230)"/><circle cx="210" cy="240" r="5" transform="rotate(0,210,240)"/><circle cx="210" cy="250" r="5" transform="rotate(0,210,250)"/><circle cx="210" cy="290" r="5" transform="rotate(0,210,290)"/><circle cx="210" cy="300" r="5" transform="rotate(0,210,300)"/><circle cx="210" cy="360" r="5" transform="rotate(0,210,360)"/><circle cx="210" cy="370" r="5" transform="rotate(0,210,370)"/><circle cx="210" cy="380" r="5" transform="rotate(0,210,380)"/><circle cx="210" cy="410" r="5" transform="rotate(0,210,410)"/><circle cx="210" cy="420" r="5" transform="rotate(0,210,420)"/><circle cx="210" cy="450" r="5" transform="rotate(0,210,450)"/><circle cx="210" cy="460" r="5" transform="rotate(0,210,460)"/><circle cx="220" cy="30" r="5" transform="rotate(0,220,30)"/><circle cx="220" cy="60" r="5" transform="rotate(0,220,60)"/><circle cx="220" cy="70" r="5" transform="rotate(0,220,70)"/><circle cx="220" cy="80" r="5" transform="rotate(0,220,80)"/><circle cx="220" cy="180" r="5" transform="rotate(0,220,180)"/><circle cx="220" cy="190" r="5" transform="rotate(0,220,190)"/><circle cx="220" cy="280" r="5" transform="rotate(0,220,280)"/><circle cx="220" cy="290" r="5" transform="rotate(0,220,290)"/><circle cx="220" cy="300" r="5" transform="rotate(0,220,300)"/><circle cx="220" cy="320" r="5" transform="rotate(0,220,320)"/><circle cx="220" cy="340" r="5" transform="rotate(0,220,340)"/><circle cx="220" cy="350" r="5" transform="rotate(0,220,350)"/><circle cx="220" cy="390" r="5" transform="rotate(0,220,390)"/><circle cx="220" cy="400" r="5" transform="rotate(0,220,400)"/><circle cx="220" cy="430" r="5" transform="rotate(0,220,430)"/><circle cx="220" cy="440" r="5" transform="rotate(0,220,440)"/><circle cx="220" cy="450" r="5" transform="rotate(0,220,450)"/><circle cx="220" cy="460" r="5" transform="rotate(0,220,460)"/><circle cx="230" cy="30" r="5" transform="rotate(0,230,30)"/><circle cx="230" cy="40" r="5" transform="rotate(0,230,40)"/><circle cx="230" cy="50" r="5" transform="rotate(0,230,50)"/><circle cx="230" cy="70" r="5" transform="rotate(0,230,70)"/><circle cx="230" cy="80" r="5" transform="rotate(0,230,80)"/><circle cx="230" cy="90" r="5" transform="rotate(0,230,90)"/><circle cx="230" cy="100" r="5" transform="rotate(0,230,100)"/><circle cx="230" cy="110" r="5" transform="rotate(0,230,110)"/><circle cx="230" cy="130" r="5" transform="rotate(0,230,130)"/><circle cx="230" cy="150" r="5" transform="rotate(0,230,150)"/><circle cx="230" cy="160" r="5" transform="rotate(0,230,160)"/><circle cx="230" cy="190" r="5" transform="rotate(0,230,190)"/><circle cx="230" cy="220" r="5" transform="rotate(0,230,220)"/><circle cx="230" cy="230" r="5" transform="rotate(0,230,230)"/><circle cx="230" cy="240" r="5" transform="rotate(0,230,240)"/><circle cx="230" cy="250" r="5" transform="rotate(0,230,250)"/><circle cx="230" cy="260" r="5" transform="rotate(0,230,260)"/><circle cx="230" cy="270" r="5" transform="rotate(0,230,270)"/><circle cx="230" cy="290" r="5" transform="rotate(0,230,290)"/><circle cx="230" cy="310" r="5" transform="rotate(0,230,310)"/><circle cx="230" cy="360" r="5" transform="rotate(0,230,360)"/><circle cx="230" cy="390" r="5" transform="rotate(0,230,390)"/><circle cx="230" cy="400" r="5" transform="rotate(0,230,400)"/><circle cx="230" cy="410" r="5" transform="rotate(0,230,410)"/><circle cx="230" cy="420" r="5" transform="rotate(0,230,420)"/><circle cx="230" cy="430" r="5" transform="rotate(0,230,430)"/><circle cx="230" cy="440" r="5" transform="rotate(0,230,440)"/><circle cx="230" cy="460" r="5" transform="rotate(0,230,460)"/><circle cx="230" cy="470" r="5" transform="rotate(0,230,470)"/><circle cx="240" cy="30" r="5" transform="rotate(0,240,30)"/><circle cx="240" cy="40" r="5" transform="rotate(0,240,40)"/><circle cx="240" cy="50" r="5" transform="rotate(0,240,50)"/><circle cx="240" cy="70" r="5" transform="rotate(0,240,70)"/><circle cx="240" cy="110" r="5" transform="rotate(0,240,110)"/><circle cx="240" cy="130" r="5" transform="rotate(0,240,130)"/><circle cx="240" cy="140" r="5" transform="rotate(0,240,140)"/><circle cx="240" cy="160" r="5" transform="rotate(0,240,160)"/><circle cx="240" cy="170" r="5" transform="rotate(0,240,170)"/><circle cx="240" cy="180" r="5" transform="rotate(0,240,180)"/><circle cx="240" cy="190" r="5" transform="rotate(0,240,190)"/><circle cx="240" cy="200" r="5" transform="rotate(0,240,200)"/><circle cx="240" cy="220" r="5" transform="rotate(0,240,220)"/><circle cx="240" cy="230" r="5" transform="rotate(0,240,230)"/><circle cx="240" cy="270" r="5" transform="rotate(0,240,270)"/><circle cx="240" cy="280" r="5" transform="rotate(0,240,280)"/><circle cx="240" cy="290" r="5" transform="rotate(0,240,290)"/><circle cx="240" cy="300" r="5" transform="rotate(0,240,300)"/><circle cx="240" cy="310" r="5" transform="rotate(0,240,310)"/><circle cx="240" cy="320" r="5" transform="rotate(0,240,320)"/><circle cx="240" cy="350" r="5" transform="rotate(0,240,350)"/><circle cx="240" cy="360" r="5" transform="rotate(0,240,360)"/><circle cx="240" cy="390" r="5" transform="rotate(0,240,390)"/><circle cx="240" cy="430" r="5" transform="rotate(0,240,430)"/><circle cx="240" cy="460" r="5" transform="rotate(0,240,460)"/><circle cx="240" cy="470" r="5" transform="rotate(0,240,470)"/><circle cx="250" cy="50" r="5" transform="rotate(0,250,50)"/><circle cx="250" cy="60" r="5" transform="rotate(0,250,60)"/><circle cx="250" cy="70" r="5" transform="rotate(0,250,70)"/><circle cx="250" cy="90" r="5" transform="rotate(0,250,90)"/><circle cx="250" cy="110" r="5" transform="rotate(0,250,110)"/><circle cx="250" cy="120" r="5" transform="rotate(0,250,120)"/><circle cx="250" cy="140" r="5" transform="rotate(0,250,140)"/><circle cx="250" cy="160" r="5" transform="rotate(0,250,160)"/><circle cx="250" cy="170" r="5" transform="rotate(0,250,170)"/><circle cx="250" cy="180" r="5" transform="rotate(0,250,180)"/><circle cx="250" cy="200" r="5" transform="rotate(0,250,200)"/><circle cx="250" cy="210" r="5" transform="rotate(0,250,210)"/><circle cx="250" cy="220" r="5" transform="rotate(0,250,220)"/><circle cx="250" cy="230" r="5" transform="rotate(0,250,230)"/><circle cx="250" cy="250" r="5" transform="rotate(0,250,250)"/><circle cx="250" cy="270" r="5" transform="rotate(0,250,270)"/><circle cx="250" cy="310" r="5" transform="rotate(0,250,310)"/><circle cx="250" cy="330" r="5" transform="rotate(0,250,330)"/><circle cx="250" cy="340" r="5" transform="rotate(0,250,340)"/><circle cx="250" cy="370" r="5" transform="rotate(0,250,370)"/><circle cx="250" cy="390" r="5" transform="rotate(0,250,390)"/><circle cx="250" cy="410" r="5" transform="rotate(0,250,410)"/><circle cx="250" cy="430" r="5" transform="rotate(0,250,430)"/><circle cx="250" cy="450" r="5" transform="rotate(0,250,450)"/><circle cx="250" cy="460" r="5" transform="rotate(0,250,460)"/><circle cx="260" cy="40" r="5" transform="rotate(0,260,40)"/><circle cx="260" cy="50" r="5" transform="rotate(0,260,50)"/><circle cx="260" cy="60" r="5" transform="rotate(0,260,60)"/><circle cx="260" cy="70" r="5" transform="rotate(0,260,70)"/><circle cx="260" cy="110" r="5" transform="rotate(0,260,110)"/><circle cx="260" cy="120" r="5" transform="rotate(0,260,120)"/><circle cx="260" cy="140" r="5" transform="rotate(0,260,140)"/><circle cx="260" cy="150" r="5" transform="rotate(0,260,150)"/><circle cx="260" cy="170" r="5" transform="rotate(0,260,170)"/><circle cx="260" cy="210" r="5" transform="rotate(0,260,210)"/><circle cx="260" cy="220" r="5" transform="rotate(0,260,220)"/><circle cx="260" cy="230" r="5" transform="rotate(0,260,230)"/><circle cx="260" cy="270" r="5" transform="rotate(0,260,270)"/><circle cx="260" cy="280" r="5" transform="rotate(0,260,280)"/><circle cx="260" cy="290" r="5" transform="rotate(0,260,290)"/><circle cx="260" cy="310" r="5" transform="rotate(0,260,310)"/><circle cx="260" cy="320" r="5" transform="rotate(0,260,320)"/><circle cx="260" cy="330" r="5" transform="rotate(0,260,330)"/><circle cx="260" cy="340" r="5" transform="rotate(0,260,340)"/><circle cx="260" cy="350" r="5" transform="rotate(0,260,350)"/><circle cx="260" cy="370" r="5" transform="rotate(0,260,370)"/><circle cx="260" cy="390" r="5" transform="rotate(0,260,390)"/><circle cx="260" cy="430" r="5" transform="rotate(0,260,430)"/><circle cx="260" cy="440" r="5" transform="rotate(0,260,440)"/><circle cx="260" cy="450" r="5" transform="rotate(0,260,450)"/><circle cx="260" cy="460" r="5" transform="rotate(0,260,460)"/><circle cx="270" cy="30" r="5" transform="rotate(0,270,30)"/><circle cx="270" cy="70" r="5" transform="rotate(0,270,70)"/><circle cx="270" cy="80" r="5" transform="rotate(0,270,80)"/><circle cx="270" cy="90" r="5" transform="rotate(0,270,90)"/><circle cx="270" cy="100" r="5" transform="rotate(0,270,100)"/><circle cx="270" cy="110" r="5" transform="rotate(0,270,110)"/><circle cx="270" cy="140" r="5" transform="rotate(0,270,140)"/><circle cx="270" cy="190" r="5" transform="rotate(0,270,190)"/><circle cx="270" cy="210" r="5" transform="rotate(0,270,210)"/><circle cx="270" cy="230" r="5" transform="rotate(0,270,230)"/><circle cx="270" cy="240" r="5" transform="rotate(0,270,240)"/><circle cx="270" cy="250" r="5" transform="rotate(0,270,250)"/><circle cx="270" cy="260" r="5" transform="rotate(0,270,260)"/><circle cx="270" cy="270" r="5" transform="rotate(0,270,270)"/><circle cx="270" cy="280" r="5" transform="rotate(0,270,280)"/><circle cx="270" cy="320" r="5" transform="rotate(0,270,320)"/><circle cx="270" cy="390" r="5" transform="rotate(0,270,390)"/><circle cx="270" cy="400" r="5" transform="rotate(0,270,400)"/><circle cx="270" cy="410" r="5" transform="rotate(0,270,410)"/><circle cx="270" cy="420" r="5" transform="rotate(0,270,420)"/><circle cx="270" cy="430" r="5" transform="rotate(0,270,430)"/><circle cx="270" cy="440" r="5" transform="rotate(0,270,440)"/><circle cx="280" cy="30" r="5" transform="rotate(0,280,30)"/><circle cx="280" cy="80" r="5" transform="rotate(0,280,80)"/><circle cx="280" cy="100" r="5" transform="rotate(0,280,100)"/><circle cx="280" cy="120" r="5" transform="rotate(0,280,120)"/><circle cx="280" cy="140" r="5" transform="rotate(0,280,140)"/><circle cx="280" cy="150" r="5" transform="rotate(0,280,150)"/><circle cx="280" cy="160" r="5" transform="rotate(0,280,160)"/><circle cx="280" cy="170" r="5" transform="rotate(0,280,170)"/><circle cx="280" cy="180" r="5" transform="rotate(0,280,180)"/><circle cx="280" cy="210" r="5" transform="rotate(0,280,210)"/><circle cx="280" cy="220" r="5" transform="rotate(0,280,220)"/><circle cx="280" cy="270" r="5" transform="rotate(0,280,270)"/><circle cx="280" cy="290" r="5" transform="rotate(0,280,290)"/><circle cx="280" cy="300" r="5" transform="rotate(0,280,300)"/><circle cx="280" cy="310" r="5" transform="rotate(0,280,310)"/><circle cx="280" cy="320" r="5" transform="rotate(0,280,320)"/><circle cx="280" cy="330" r="5" transform="rotate(0,280,330)"/><circle cx="280" cy="340" r="5" transform="rotate(0,280,340)"/><circle cx="280" cy="350" r="5" transform="rotate(0,280,350)"/><circle cx="280" cy="380" r="5" transform="rotate(0,280,380)"/><circle cx="280" cy="440" r="5" transform="rotate(0,280,440)"/><circle cx="280" cy="450" r="5" transform="rotate(0,280,450)"/><circle cx="280" cy="460" r="5" transform="rotate(0,280,460)"/><circle cx="280" cy="470" r="5" transform="rotate(0,280,470)"/><circle cx="290" cy="30" r="5" transform="rotate(0,290,30)"/><circle cx="290" cy="50" r="5" transform="rotate(0,290,50)"/><circle cx="290" cy="60" r="5" transform="rotate(0,290,60)"/><circle cx="290" cy="70" r="5" transform="rotate(0,290,70)"/><circle cx="290" cy="90" r="5" transform="rotate(0,290,90)"/><circle cx="290" cy="100" r="5" transform="rotate(0,290,100)"/><circle cx="290" cy="160" r="5" transform="rotate(0,290,160)"/><circle cx="290" cy="180" r="5" transform="rotate(0,290,180)"/><circle cx="290" cy="190" r="5" transform="rotate(0,290,190)"/><circle cx="290" cy="200" r="5" transform="rotate(0,290,200)"/><circle cx="290" cy="210" r="5" transform="rotate(0,290,210)"/><circle cx="290" cy="250" r="5" transform="rotate(0,290,250)"/><circle cx="290" cy="260" r="5" transform="rotate(0,290,260)"/><circle cx="290" cy="290" r="5" transform="rotate(0,290,290)"/><circle cx="290" cy="340" r="5" transform="rotate(0,290,340)"/><circle cx="290" cy="350" r="5" transform="rotate(0,290,350)"/><circle cx="290" cy="370" r="5" transform="rotate(0,290,370)"/><circle cx="290" cy="390" r="5" transform="rotate(0,290,390)"/><circle cx="290" cy="420" r="5" transform="rotate(0,290,420)"/><circle cx="290" cy="430" r="5" transform="rotate(0,290,430)"/><circle cx="290" cy="440" r="5" transform="rotate(0,290,440)"/><circle cx="290" cy="450" r="5" transform="rotate(0,290,450)"/><circle cx="300" cy="30" r="5" transform="rotate(0,300,30)"/><circle cx="300" cy="40" r="5" transform="rotate(0,300,40)"/><circle cx="300" cy="50" r="5" transform="rotate(0,300,50)"/><circle cx="300" cy="60" r="5" transform="rotate(0,300,60)"/><circle cx="300" cy="100" r="5" transform="rotate(0,300,100)"/><circle cx="300" cy="110" r="5" transform="rotate(0,300,110)"/><circle cx="300" cy="150" r="5" transform="rotate(0,300,150)"/><circle cx="300" cy="160" r="5" transform="rotate(0,300,160)"/><circle cx="300" cy="170" r="5" transform="rotate(0,300,170)"/><circle cx="300" cy="190" r="5" transform="rotate(0,300,190)"/><circle cx="300" cy="200" r="5" transform="rotate(0,300,200)"/><circle cx="300" cy="210" r="5" transform="rotate(0,300,210)"/><circle cx="300" cy="230" r="5" transform="rotate(0,300,230)"/><circle cx="300" cy="280" r="5" transform="rotate(0,300,280)"/><circle cx="300" cy="300" r="5" transform="rotate(0,300,300)"/><circle cx="300" cy="310" r="5" transform="rotate(0,300,310)"/><circle cx="300" cy="320" r="5" transform="rotate(0,300,320)"/><circle cx="300" cy="330" r="5" transform="rotate(0,300,330)"/><circle cx="300" cy="380" r="5" transform="rotate(0,300,380)"/><circle cx="300" cy="390" r="5" transform="rotate(0,300,390)"/><circle cx="300" cy="410" r="5" transform="rotate(0,300,410)"/><circle cx="300" cy="430" r="5" transform="rotate(0,300,430)"/><circle cx="300" cy="450" r="5" transform="rotate(0,300,450)"/><circle cx="300" cy="460" r="5" transform="rotate(0,300,460)"/><circle cx="310" cy="30" r="5" transform="rotate(0,310,30)"/><circle cx="310" cy="50" r="5" transform="rotate(0,310,50)"/><circle cx="310" cy="80" r="5" transform="rotate(0,310,80)"/><circle cx="310" cy="90" r="5" transform="rotate(0,310,90)"/><circle cx="310" cy="100" r="5" transform="rotate(0,310,100)"/><circle cx="310" cy="120" r="5" transform="rotate(0,310,120)"/><circle cx="310" cy="150" r="5" transform="rotate(0,310,150)"/><circle cx="310" cy="160" r="5" transform="rotate(0,310,160)"/><circle cx="310" cy="220" r="5" transform="rotate(0,310,220)"/><circle cx="310" cy="230" r="5" transform="rotate(0,310,230)"/><circle cx="310" cy="250" r="5" transform="rotate(0,310,250)"/><circle cx="310" cy="260" r="5" transform="rotate(0,310,260)"/><circle cx="310" cy="270" r="5" transform="rotate(0,310,270)"/><circle cx="310" cy="280" r="5" transform="rotate(0,310,280)"/><circle cx="310" cy="340" r="5" transform="rotate(0,310,340)"/><circle cx="310" cy="350" r="5" transform="rotate(0,310,350)"/><circle cx="310" cy="390" r="5" transform="rotate(0,310,390)"/><circle cx="310" cy="400" r="5" transform="rotate(0,310,400)"/><circle cx="310" cy="430" r="5" transform="rotate(0,310,430)"/><circle cx="310" cy="440" r="5" transform="rotate(0,310,440)"/><circle cx="310" cy="460" r="5" transform="rotate(0,310,460)"/><circle cx="320" cy="40" r="5" transform="rotate(0,320,40)"/><circle cx="320" cy="50" r="5" transform="rotate(0,320,50)"/><circle cx="320" cy="60" r="5" transform="rotate(0,320,60)"/><circle cx="320" cy="110" r="5" transform="rotate(0,320,110)"/><circle cx="320" cy="120" r="5" transform="rotate(0,320,120)"/><circle cx="320" cy="160" r="5" transform="rotate(0,320,160)"/><circle cx="320" cy="180" r="5" transform="rotate(0,320,180)"/><circle cx="320" cy="200" r="5" transform="rotate(0,320,200)"/><circle cx="320" cy="220" r="5" transform="rotate(0,320,220)"/><circle cx="320" cy="260" r="5" transform="rotate(0,320,260)"/><circle cx="320" cy="280" r="5" transform="rotate(0,320,280)"/><circle cx="320" cy="290" r="5" transform="rotate(0,320,290)"/><circle cx="320" cy="300" r="5" transform="rotate(0,320,300)"/><circle cx="320" cy="330" r="5" transform="rotate(0,320,330)"/><circle cx="320" cy="350" r="5" transform="rotate(0,320,350)"/><circle cx="320" cy="380" r="5" transform="rotate(0,320,380)"/><circle cx="320" cy="390" r="5" transform="rotate(0,320,390)"/><circle cx="320" cy="410" r="5" transform="rotate(0,320,410)"/><circle cx="320" cy="420" r="5" transform="rotate(0,320,420)"/><circle cx="320" cy="450" r="5" transform="rotate(0,320,450)"/><circle cx="320" cy="470" r="5" transform="rotate(0,320,470)"/><circle cx="330" cy="30" r="5" transform="rotate(0,330,30)"/><circle cx="330" cy="40" r="5" transform="rotate(0,330,40)"/><circle cx="330" cy="50" r="5" transform="rotate(0,330,50)"/><circle cx="330" cy="90" r="5" transform="rotate(0,330,90)"/><circle cx="330" cy="120" r="5" transform="rotate(0,330,120)"/><circle cx="330" cy="130" r="5" transform="rotate(0,330,130)"/><circle cx="330" cy="140" r="5" transform="rotate(0,330,140)"/><circle cx="330" cy="170" r="5" transform="rotate(0,330,170)"/><circle cx="330" cy="190" r="5" transform="rotate(0,330,190)"/><circle cx="330" cy="220" r="5" transform="rotate(0,330,220)"/><circle cx="330" cy="240" r="5" transform="rotate(0,330,240)"/><circle cx="330" cy="250" r="5" transform="rotate(0,330,250)"/><circle cx="330" cy="260" r="5" transform="rotate(0,330,260)"/><circle cx="330" cy="280" r="5" transform="rotate(0,330,280)"/><circle cx="330" cy="290" r="5" transform="rotate(0,330,290)"/><circle cx="330" cy="310" r="5" transform="rotate(0,330,310)"/><circle cx="330" cy="320" r="5" transform="rotate(0,330,320)"/><circle cx="330" cy="340" r="5" transform="rotate(0,330,340)"/><circle cx="330" cy="350" r="5" transform="rotate(0,330,350)"/><circle cx="330" cy="360" r="5" transform="rotate(0,330,360)"/><circle cx="330" cy="370" r="5" transform="rotate(0,330,370)"/><circle cx="330" cy="390" r="5" transform="rotate(0,330,390)"/><circle cx="330" cy="450" r="5" transform="rotate(0,330,450)"/><circle cx="330" cy="460" r="5" transform="rotate(0,330,460)"/><circle cx="340" cy="30" r="5" transform="rotate(0,340,30)"/><circle cx="340" cy="40" r="5" transform="rotate(0,340,40)"/><circle cx="340" cy="50" r="5" transform="rotate(0,340,50)"/><circle cx="340" cy="70" r="5" transform="rotate(0,340,70)"/><circle cx="340" cy="80" r="5" transform="rotate(0,340,80)"/><circle cx="340" cy="100" r="5" transform="rotate(0,340,100)"/><circle cx="340" cy="130" r="5" transform="rotate(0,340,130)"/><circle cx="340" cy="150" r="5" transform="rotate(0,340,150)"/><circle cx="340" cy="220" r="5" transform="rotate(0,340,220)"/><circle cx="340" cy="240" r="5" transform="rotate(0,340,240)"/><circle cx="340" cy="250" r="5" transform="rotate(0,340,250)"/><circle cx="340" cy="270" r="5" transform="rotate(0,340,270)"/><circle cx="340" cy="290" r="5" transform="rotate(0,340,290)"/><circle cx="340" cy="300" r="5" transform="rotate(0,340,300)"/><circle cx="340" cy="310" r="5" transform="rotate(0,340,310)"/><circle cx="340" cy="320" r="5" transform="rotate(0,340,320)"/><circle cx="340" cy="340" r="5" transform="rotate(0,340,340)"/><circle cx="340" cy="350" r="5" transform="rotate(0,340,350)"/><circle cx="340" cy="370" r="5" transform="rotate(0,340,370)"/><circle cx="340" cy="380" r="5" transform="rotate(0,340,380)"/><circle cx="340" cy="400" r="5" transform="rotate(0,340,400)"/><circle cx="340" cy="410" r="5" transform="rotate(0,340,410)"/><circle cx="340" cy="420" r="5" transform="rotate(0,340,420)"/><circle cx="340" cy="450" r="5" transform="rotate(0,340,450)"/><circle cx="340" cy="470" r="5" transform="rotate(0,340,470)"/><circle cx="350" cy="30" r="5" transform="rotate(0,350,30)"/><circle cx="350" cy="50" r="5" transform="rotate(0,350,50)"/><circle cx="350" cy="70" r="5" transform="rotate(0,350,70)"/><circle cx="350" cy="80" r="5" transform="rotate(0,350,80)"/><circle cx="350" cy="90" r="5" transform="rotate(0,350,90)"/><circle cx="350" cy="100" r="5" transform="rotate(0,350,100)"/><circle cx="350" cy="110" r="5" transform="rotate(0,350,110)"/><circle cx="350" cy="120" r="5" transform="rotate(0,350,120)"/><circle cx="350" cy="130" r="5" transform="rotate(0,350,130)"/><circle cx="350" cy="150" r="5" transform="rotate(0,350,150)"/><circle cx="350" cy="160" r="5" transform="rotate(0,350,160)"/><circle cx="350" cy="180" r="5" transform="rotate(0,350,180)"/><circle cx="350" cy="260" r="5" transform="rotate(0,350,260)"/><circle cx="350" cy="290" r="5" transform="rotate(0,350,290)"/><circle cx="350" cy="340" r="5" transform="rotate(0,350,340)"/><circle cx="350" cy="360" r="5" transform="rotate(0,350,360)"/><circle cx="350" cy="370" r="5" transform="rotate(0,350,370)"/><circle cx="350" cy="420" r="5" transform="rotate(0,350,420)"/><circle cx="350" cy="430" r="5" transform="rotate(0,350,430)"/><circle cx="350" cy="440" r="5" transform="rotate(0,350,440)"/><circle cx="350" cy="460" r="5" transform="rotate(0,350,460)"/><circle cx="350" cy="470" r="5" transform="rotate(0,350,470)"/><circle cx="360" cy="60" r="5" transform="rotate(0,360,60)"/><circle cx="360" cy="70" r="5" transform="rotate(0,360,70)"/><circle cx="360" cy="80" r="5" transform="rotate(0,360,80)"/><circle cx="360" cy="100" r="5" transform="rotate(0,360,100)"/><circle cx="360" cy="110" r="5" transform="rotate(0,360,110)"/><circle cx="360" cy="120" r="5" transform="rotate(0,360,120)"/><circle cx="360" cy="130" r="5" transform="rotate(0,360,130)"/><circle cx="360" cy="150" r="5" transform="rotate(0,360,150)"/><circle cx="360" cy="220" r="5" transform="rotate(0,360,220)"/><circle cx="360" cy="240" r="5" transform="rotate(0,360,240)"/><circle cx="360" cy="310" r="5" transform="rotate(0,360,310)"/><circle cx="360" cy="320" r="5" transform="rotate(0,360,320)"/><circle cx="360" cy="330" r="5" transform="rotate(0,360,330)"/><circle cx="360" cy="340" r="5" transform="rotate(0,360,340)"/><circle cx="360" cy="400" r="5" transform="rotate(0,360,400)"/><circle cx="360" cy="410" r="5" transform="rotate(0,360,410)"/><circle cx="360" cy="440" r="5" transform="rotate(0,360,440)"/><circle cx="360" cy="450" r="5" transform="rotate(0,360,450)"/><circle cx="360" cy="460" r="5" transform="rotate(0,360,460)"/><circle cx="360" cy="470" r="5" transform="rotate(0,360,470)"/><circle cx="370" cy="70" r="5" transform="rotate(0,370,70)"/><circle cx="370" cy="90" r="5" transform="rotate(0,370,90)"/><circle cx="370" cy="100" r="5" transform="rotate(0,370,100)"/><circle cx="370" cy="110" r="5" transform="rotate(0,370,110)"/><circle cx="370" cy="120" r="5" transform="rotate(0,370,120)"/><circle cx="370" cy="130" r="5" transform="rotate(0,370,130)"/><circle cx="370" cy="140" r="5" transform="rotate(0,370,140)"/><circle cx="370" cy="180" r="5" transform="rotate(0,370,180)"/><circle cx="370" cy="190" r="5" transform="rotate(0,370,190)"/><circle cx="370" cy="200" r="5" transform="rotate(0,370,200)"/><circle cx="370" cy="210" r="5" transform="rotate(0,370,210)"/><circle cx="370" cy="230" r="5" transform="rotate(0,370,230)"/><circle cx="370" cy="260" r="5" transform="rotate(0,370,260)"/><circle cx="370" cy="300" r="5" transform="rotate(0,370,300)"/><circle cx="370" cy="320" r="5" transform="rotate(0,370,320)"/><circle cx="370" cy="340" r="5" transform="rotate(0,370,340)"/><circle cx="370" cy="360" r="5" transform="rotate(0,370,360)"/><circle cx="370" cy="370" r="5" transform="rotate(0,370,370)"/><circle cx="370" cy="380" r="5" transform="rotate(0,370,380)"/><circle cx="370" cy="390" r="5" transform="rotate(0,370,390)"/><circle cx="370" cy="400" r="5" transform="rotate(0,370,400)"/><circle cx="370" cy="430" r="5" transform="rotate(0,370,430)"/><circle cx="370" cy="440" r="5" transform="rotate(0,370,440)"/><circle cx="370" cy="450" r="5" transform="rotate(0,370,450)"/><circle cx="380" cy="40" r="5" transform="rotate(0,380,40)"/><circle cx="380" cy="50" r="5" transform="rotate(0,380,50)"/><circle cx="380" cy="60" r="5" transform="rotate(0,380,60)"/><circle cx="380" cy="70" r="5" transform="rotate(0,380,70)"/><circle cx="380" cy="100" r="5" transform="rotate(0,380,100)"/><circle cx="380" cy="110" r="5" transform="rotate(0,380,110)"/><circle cx="380" cy="120" r="5" transform="rotate(0,380,120)"/><circle cx="380" cy="140" r="5" transform="rotate(0,380,140)"/><circle cx="380" cy="150" r="5" transform="rotate(0,380,150)"/><circle cx="380" cy="170" r="5" transform="rotate(0,380,170)"/><circle cx="380" cy="190" r="5" transform="rotate(0,380,190)"/><circle cx="380" cy="200" r="5" transform="rotate(0,380,200)"/><circle cx="380" cy="210" r="5" transform="rotate(0,380,210)"/><circle cx="380" cy="230" r="5" transform="rotate(0,380,230)"/><circle cx="380" cy="260" r="5" transform="rotate(0,380,260)"/><circle cx="380" cy="270" r="5" transform="rotate(0,380,270)"/><circle cx="380" cy="280" r="5" transform="rotate(0,380,280)"/><circle cx="380" cy="310" r="5" transform="rotate(0,380,310)"/><circle cx="380" cy="320" r="5" transform="rotate(0,380,320)"/><circle cx="380" cy="330" r="5" transform="rotate(0,380,330)"/><circle cx="380" cy="350" r="5" transform="rotate(0,380,350)"/><circle cx="380" cy="360" r="5" transform="rotate(0,380,360)"/><circle cx="380" cy="380" r="5" transform="rotate(0,380,380)"/><circle cx="380" cy="390" r="5" transform="rotate(0,380,390)"/><circle cx="380" cy="400" r="5" transform="rotate(0,380,400)"/><circle cx="380" cy="410" r="5" transform="rotate(0,380,410)"/><circle cx="380" cy="420" r="5" transform="rotate(0,380,420)"/><circle cx="380" cy="440" r="5" transform="rotate(0,380,440)"/><circle cx="380" cy="450" r="5" transform="rotate(0,380,450)"/><circle cx="380" cy="470" r="5" transform="rotate(0,380,470)"/><circle cx="390" cy="30" r="5" transform="rotate(0,390,30)"/><circle cx="390" cy="60" r="5" transform="rotate(0,390,60)"/><circle cx="390" cy="70" r="5" transform="rotate(0,390,70)"/><circle cx="390" cy="90" r="5" transform="rotate(0,390,90)"/><circle cx="390" cy="100" r="5" transform="rotate(0,390,100)"/><circle cx="390" cy="110" r="5" transform="rotate(0,390,110)"/><circle cx="390" cy="120" r="5" transform="rotate(0,390,120)"/><circle cx="390" cy="150" r="5" transform="rotate(0,390,150)"/><circle cx="390" cy="170" r="5" transform="rotate(0,390,170)"/><circle cx="390" cy="180" r="5" transform="rotate(0,390,180)"/><circle cx="390" cy="210" r="5" transform="rotate(0,390,210)"/><circle cx="390" cy="220" r="5" transform="rotate(0,390,220)"/><circle cx="390" cy="230" r="5" transform="rotate(0,390,230)"/><circle cx="390" cy="240" r="5" transform="rotate(0,390,240)"/><circle cx="390" cy="250" r="5" transform="rotate(0,390,250)"/><circle cx="390" cy="260" r="5" transform="rotate(0,390,260)"/><circle cx="390" cy="270" r="5" transform="rotate(0,390,270)"/><circle cx="390" cy="280" r="5" transform="rotate(0,390,280)"/><circle cx="390" cy="290" r="5" transform="rotate(0,390,290)"/><circle cx="390" cy="300" r="5" transform="rotate(0,390,300)"/><circle cx="390" cy="340" r="5" transform="rotate(0,390,340)"/><circle cx="390" cy="390" r="5" transform="rotate(0,390,390)"/><circle cx="390" cy="400" r="5" transform="rotate(0,390,400)"/><circle cx="390" cy="410" r="5" transform="rotate(0,390,410)"/><circle cx="390" cy="420" r="5" transform="rotate(0,390,420)"/><circle cx="390" cy="430" r="5" transform="rotate(0,390,430)"/><circle cx="400" cy="110" r="5" transform="rotate(0,400,110)"/><circle cx="400" cy="130" r="5" transform="rotate(0,400,130)"/><circle cx="400" cy="140" r="5" transform="rotate(0,400,140)"/><circle cx="400" cy="230" r="5" transform="rotate(0,400,230)"/><circle cx="400" cy="270" r="5" transform="rotate(0,400,270)"/><circle cx="400" cy="280" r="5" transform="rotate(0,400,280)"/><circle cx="400" cy="290" r="5" transform="rotate(0,400,290)"/><circle cx="400" cy="320" r="5" transform="rotate(0,400,320)"/><circle cx="400" cy="330" r="5" transform="rotate(0,400,330)"/><circle cx="400" cy="340" r="5" transform="rotate(0,400,340)"/><circle cx="400" cy="350" r="5" transform="rotate(0,400,350)"/><circle cx="400" cy="360" r="5" transform="rotate(0,400,360)"/><circle cx="400" cy="390" r="5" transform="rotate(0,400,390)"/><circle cx="400" cy="430" r="5" transform="rotate(0,400,430)"/><circle cx="400" cy="460" r="5" transform="rotate(0,400,460)"/><circle cx="400" cy="470" r="5" transform="rotate(0,400,470)"/><circle cx="410" cy="110" r="5" transform="rotate(0,410,110)"/><circle cx="410" cy="150" r="5" transform="rotate(0,410,150)"/><circle cx="410" cy="160" r="5" transform="rotate(0,410,160)"/><circle cx="410" cy="210" r="5" transform="rotate(0,410,210)"/><circle cx="410" cy="220" r="5" transform="rotate(0,410,220)"/><circle cx="410" cy="230" r="5" transform="rotate(0,410,230)"/><circle cx="410" cy="250" r="5" transform="rotate(0,410,250)"/><circle cx="410" cy="270" r="5" transform="rotate(0,410,270)"/><circle cx="410" cy="290" r="5" transform="rotate(0,410,290)"/><circle cx="410" cy="300" r="5" transform="rotate(0,410,300)"/><circle cx="410" cy="380" r="5" transform="rotate(0,410,380)"/><circle cx="410" cy="390" r="5" transform="rotate(0,410,390)"/><circle cx="410" cy="410" r="5" transform="rotate(0,410,410)"/><circle cx="410" cy="430" r="5" transform="rotate(0,410,430)"/><circle cx="410" cy="440" r="5" transform="rotate(0,410,440)"/><circle cx="410" cy="450" r="5" transform="rotate(0,410,450)"/><circle cx="420" cy="110" r="5" transform="rotate(0,420,110)"/><circle cx="420" cy="120" r="5" transform="rotate(0,420,120)"/><circle cx="420" cy="140" r="5" transform="rotate(0,420,140)"/><circle cx="420" cy="190" r="5" transform="rotate(0,420,190)"/><circle cx="420" cy="200" r="5" transform="rotate(0,420,200)"/><circle cx="420" cy="220" r="5" transform="rotate(0,420,220)"/><circle cx="420" cy="230" r="5" transform="rotate(0,420,230)"/><circle cx="420" cy="270" r="5" transform="rotate(0,420,270)"/><circle cx="420" cy="310" r="5" transform="rotate(0,420,310)"/><circle cx="420" cy="340" r="5" transform="rotate(0,420,340)"/><circle cx="420" cy="350" r="5" transform="rotate(0,420,350)"/><circle cx="420" cy="370" r="5" transform="rotate(0,420,370)"/><circle cx="420" cy="380" r="5" transform="rotate(0,420,380)"/><circle cx="420" cy="390" r="5" transform="rotate(0,420,390)"/><circle cx="420" cy="430" r="5" transform="rotate(0,420,430)"/><circle cx="420" cy="450" r="5" transform="rotate(0,420,450)"/><circle cx="420" cy="460" r="5" transform="rotate(0,420,460)"/><circle cx="430" cy="110" r="5" transform="rotate(0,430,110)"/><circle cx="430" cy="160" r="5" transform="rotate(0,430,160)"/><circle cx="430" cy="170" r="5" transform="rotate(0,430,170)"/><circle cx="430" cy="190" r="5" transform="rotate(0,430,190)"/><circle cx="430" cy="200" r="5" transform="rotate(0,430,200)"/><circle cx="430" cy="230" r="5" transform="rotate(0,430,230)"/><circle cx="430" cy="240" r="5" transform="rotate(0,430,240)"/><circle cx="430" cy="250" r="5" transform="rotate(0,430,250)"/><circle cx="430" cy="260" r="5" transform="rotate(0,430,260)"/><circle cx="430" cy="270" r="5" transform="rotate(0,430,270)"/><circle cx="430" cy="280" r="5" transform="rotate(0,430,280)"/><circle cx="430" cy="300" r="5" transform="rotate(0,430,300)"/><circle cx="430" cy="320" r="5" transform="rotate(0,430,320)"/><circle cx="430" cy="330" r="5" transform="rotate(0,430,330)"/><circle cx="430" cy="340" r="5" transform="rotate(0,430,340)"/><circle cx="430" cy="370" r="5" transform="rotate(0,430,370)"/><circle cx="430" cy="390" r="5" transform="rotate(0,430,390)"/><circle cx="430" cy="400" r="5" transform="rotate(0,430,400)"/><circle cx="430" cy="410" r="5" transform="rotate(0,430,410)"/><circle cx="430" cy="420" r="5" transform="rotate(0,430,420)"/><circle cx="430" cy="430" r="5" transform="rotate(0,430,430)"/><circle cx="430" cy="440" r="5" transform="rotate(0,430,440)"/><circle cx="430" cy="460" r="5" transform="rotate(0,430,460)"/><circle cx="440" cy="110" r="5" transform="rotate(0,440,110)"/><circle cx="440" cy="120" r="5" transform="rotate(0,440,120)"/><circle cx="440" cy="130" r="5" transform="rotate(0,440,130)"/><circle cx="440" cy="140" r="5" transform="rotate(0,440,140)"/><circle cx="440" cy="170" r="5" transform="rotate(0,440,170)"/><circle cx="440" cy="180" r="5" transform="rotate(0,440,180)"/><circle cx="440" cy="190" r="5" transform="rotate(0,440,190)"/><circle cx="440" cy="220" r="5" transform="rotate(0,440,220)"/><circle cx="440" cy="230" r="5" transform="rotate(0,440,230)"/><circle cx="440" cy="250" r="5" transform="rotate(0,440,250)"/><circle cx="440" cy="260" r="5" transform="rotate(0,440,260)"/><circle cx="440" cy="270" r="5" transform="rotate(0,440,270)"/><circle cx="440" cy="300" r="5" transform="rotate(0,440,300)"/><circle cx="440" cy="310" r="5" transform="rotate(0,440,310)"/><circle cx="440" cy="320" r="5" transform="rotate(0,440,320)"/><circle cx="440" cy="330" r="5" transform="rotate(0,440,330)"/><circle cx="440" cy="360" r="5" transform="rotate(0,440,360)"/><circle cx="440" cy="380" r="5" transform="rotate(0,440,380)"/><circle cx="440" cy="430" r="5" transform="rotate(0,440,430)"/><circle cx="440" cy="450" r="5" transform="rotate(0,440,450)"/><circle cx="450" cy="110" r="5" transform="rotate(0,450,110)"/><circle cx="450" cy="120" r="5" transform="rotate(0,450,120)"/><circle cx="450" cy="150" r="5" transform="rotate(0,450,150)"/><circle cx="450" cy="160" r="5" transform="rotate(0,450,160)"/><circle cx="450" cy="210" r="5" transform="rotate(0,450,210)"/><circle cx="450" cy="220" r="5" transform="rotate(0,450,220)"/><circle cx="450" cy="230" r="5" transform="rotate(0,450,230)"/><circle cx="450" cy="270" r="5" transform="rotate(0,450,270)"/><circle cx="450" cy="280" r="5" transform="rotate(0,450,280)"/><circle cx="450" cy="290" r="5" transform="rotate(0,450,290)"/><circle cx="450" cy="340" r="5" transform="rotate(0,450,340)"/><circle cx="450" cy="360" r="5" transform="rotate(0,450,360)"/><circle cx="450" cy="370" r="5" transform="rotate(0,450,370)"/><circle cx="450" cy="390" r="5" transform="rotate(0,450,390)"/><circle cx="450" cy="450" r="5" transform="rotate(0,450,450)"/><circle cx="450" cy="460" r="5" transform="rotate(0,450,460)"/><circle cx="460" cy="110" r="5" transform="rotate(0,460,110)"/><circle cx="460" cy="130" r="5" transform="rotate(0,460,130)"/><circle cx="460" cy="170" r="5" transform="rotate(0,460,170)"/><circle cx="460" cy="180" r="5" transform="rotate(0,460,180)"/><circle cx="460" cy="200" r="5" transform="rotate(0,460,200)"/><circle cx="460" cy="240" r="5" transform="rotate(0,460,240)"/><circle cx="460" cy="280" r="5" transform="rotate(0,460,280)"/><circle cx="460" cy="330" r="5" transform="rotate(0,460,330)"/><circle cx="460" cy="340" r="5" transform="rotate(0,460,340)"/><circle cx="460" cy="350" r="5" transform="rotate(0,460,350)"/><circle cx="460" cy="360" r="5" transform="rotate(0,460,360)"/><circle cx="460" cy="400" r="5" transform="rotate(0,460,400)"/><circle cx="460" cy="420" r="5" transform="rotate(0,460,420)"/><circle cx="460" cy="450" r="5" transform="rotate(0,460,450)"/><circle cx="470" cy="130" r="5" transform="rotate(0,470,130)"/><circle cx="470" cy="150" r="5" transform="rotate(0,470,150)"/><circle cx="470" cy="170" r="5" transform="rotate(0,470,170)"/><circle cx="470" cy="190" r="5" transform="rotate(0,470,190)"/><circle cx="470" cy="230" r="5" transform="rotate(0,470,230)"/><circle cx="470" cy="260" r="5" transform="rotate(0,470,260)"/><circle cx="470" cy="270" r="5" transform="rotate(0,470,270)"/><circle cx="470" cy="300" r="5" transform="rotate(0,470,300)"/><circle cx="470" cy="320" r="5" transform="rotate(0,470,320)"/><circle cx="470" cy="330" r="5" transform="rotate(0,470,330)"/><circle cx="470" cy="380" r="5" transform="rotate(0,470,380)"/><circle cx="470" cy="390" r="5" transform="rotate(0,470,390)"/><circle cx="470" cy="400" r="5" transform="rotate(0,470,400)"/><circle cx="470" cy="410" r="5" transform="rotate(0,470,410)"/><circle cx="470" cy="460" r="5" transform="rotate(0,470,460)"/></clipPath><clipPath id="clip-path-corners-square-color-0-0"><path clip-rule="evenodd" d="M 60 25a 35 35 0 1 0 0.1 0zm 0 10a 25 25 0 1 1 -0.1 0Z" transform="rotate(0,60,60)"/></clipPath><clipPath id="clip-path-corners-dot-color-0-0"><circle cx="60" cy="60" r="15" transform="rotate(0,60,60)"/></clipPath><clipPath id="clip-path-corners-square-color-1-0"><path clip-rule="evenodd" d="M 440 25a 35 35 0 1 0 0.1 0zm 0 10a 25 25 0 1 1 -0.1 0Z" transform="rotate(90,440,60)"/></clipPath><clipPath id="clip-path-corners-dot-color-1-0"><circle cx="440" cy="60" r="15" transform="rotate(90,440,60)"/></clipPath><clipPath id="clip-path-corners-square-color-0-1"><path clip-rule="evenodd" d="M 60 405a 35 35 0 1 0 0.1 0zm 0 10a 25 25 0 1 1 -0.1 0Z" transform="rotate(-90,60,440)"/></clipPath><clipPath id="clip-path-corners-dot-color-0-1"><circle cx="60" cy="440" r="15" transform="rotate(-90,60,440)"/></clipPath></defs><rect x="0" y="0" height="500" width="500" clip-path="url('#clip-path-background-color')" fill="#fff"/><rect x="0" y="0" height="500" width="500" clip-path="url('#clip-path-dot-color')" fill="#000000"/><rect x="25" y="25" height="70" width="70" clip-path="url('#clip-path-corners-square-color-0-0')" fill="#000000"/><rect x="45" y="45" height="30" width="30" clip-path="url('#clip-path-corners-dot-color-0-0')" fill="#000000"/><rect x="405" y="25" height="70" width="70" clip-path="url('#clip-path-corners-square-color-1-0')" fill="#000000"/><rect x="425" y="45" height="30" width="30" clip-path="url('#clip-path-corners-dot-color-1-0')" fill="#000000"/><rect x="25" y="405" height="70" width="70" clip-path="url('#clip-path-corners-square-color-0-1')" fill="#000000"/><rect x="45" y="425" height="30" width="30" clip-path="url('#clip-path-corners-dot-color-0-1')" fill="#000000"/></svg>
