<?xml version="1.0" standalone="no"?>
<svg xmlns="http://www.w3.org/2000/svg" viewBox="0 0 500 500"><defs><clipPath id="clip-path-dot-color"><circle cx="34" cy="130" r="6" transform="rotate(0,34,130)"/><circle cx="34" cy="142" r="6" transform="rotate(0,34,142)"/><circle cx="34" cy="178" r="6" transform="rotate(0,34,178)"/><circle cx="34" cy="190" r="6" transform="rotate(0,34,190)"/><circle cx="34" cy="214" r="6" transform="rotate(0,34,214)"/><circle cx="34" cy="238" r="6" transform="rotate(0,34,238)"/><circle cx="34" cy="262" r="6" transform="rotate(0,34,262)"/><circle cx="34" cy="274" r="6" transform="rotate(0,34,274)"/><circle cx="34" cy="310" r="6" transform="rotate(0,34,310)"/><circle cx="34" cy="334" r="6" transform="rotate(0,34,334)"/><circle cx="34" cy="346" r="6" transform="rotate(0,34,346)"/><circle cx="34" cy="370" r="6" transform="rotate(0,34,370)"/><circle cx="46" cy="142" r="6" transform="rotate(0,46,142)"/><circle cx="46" cy="154" r="6" transform="rotate(0,46,154)"/><circle cx="46" cy="166" r="6" transform="rotate(0,46,166)"/><circle cx="46" cy="214" r="6" transform="rotate(0,46,214)"/><circle cx="46" cy="226" r="6" transform="rotate(0,46,226)"/><circle cx="46" cy="298" r="6" transform="rotate(0,46,298)"/><circle cx="46" cy="334" r="6" transform="rotate(0,46,334)"/><circle cx="46" cy="346" r="6" transform="rotate(0,46,346)"/><circle cx="46" cy="358" r="6" transform="rotate(0,46,358)"/><circle cx="46" cy="370" r="6" transform="rotate(0,46,370)"/><circle cx="58" cy="142" r="6" transform="rotate(0,58,142)"/><circle cx="58" cy="166" r="6" transform="rotate(0,58,166)"/><circle cx="58" cy="190" r="6" transform="rotate(0,58,190)"/><circle cx="58" cy="226" r="6" transform="rotate(0,58,226)"/><circle cx="58" cy="238" r="6" transform="rotate(0,58,238)"/><circle cx="58" cy="262" r="6" transform="rotate(0,58,262)"/><circle cx="58" cy="286" r="6" transform="rotate(0,58,286)"/><circle cx="58" cy="322" r="6" transform="rotate(0,58,322)"/><circle cx="70" cy="178" r="6" transform="rotate(0,70,178)"/><circle cx="70" cy="226" r="6" transform="rotate(0,70,226)"/><circle cx="70" cy="274" r="6" transform="rotate(0,70,274)"/><circle cx="70" cy="298" r="6" transform="rotate(0,70,298)"/><circle cx="70" cy="310" r="6" transform="rotate(0,70,310)"/><circle cx="70" cy="322" r="6" transform="rotate(0,70,322)"/><circle cx="70" cy="334" r="6" transform="rotate(0,70,334)"/><circle cx="70" cy="346" r="6" transform="rotate(0,70,346)"/><circle cx="70" cy="358" r="6" transform="rotate(0,70,358)"/><circle cx="82" cy="130" r="6" transform="rotate(0,82,130)"/><circle cx="82" cy="142" r="6" transform="rotate(0,82,142)"/><circle cx="82" cy="214" r="6" transform="rotate(0,82,214)"/><circle cx="82" cy="238" r="6" transform="rotate(0,82,238)"/><circle cx="82" cy="286" r="6" transform="rotate(0,82,286)"/><circle cx="82" cy="298" r="6" transform="rotate(0,82,298)"/><circle cx="82" cy="310" r="6" transform="rotate(0,82,310)"/><circle cx="94" cy="130" r="6" transform="rotate(0,94,130)"/><circle cx="94" cy="142" r="6" transform="rotate(0,94,142)"/><circle cx="94" cy="154" r="6" transform="rotate(0,94,154)"/><circle cx="94" cy="190" r="6" transform="rotate(0,94,190)"/><circle cx="94" cy="202" r="6" transform="rotate(0,94,202)"/><circle cx="94" cy="214" r="6" transform="rotate(0,94,214)"/><circle cx="94" cy="262" r="6" transform="rotate(0,94,262)"/><circle cx="94" cy="298" r="6" transform="rotate(0,94,298)"/><circle cx="94" cy="322" r="6" transform="rotate(0,94,322)"/><circle cx="94" cy="346" r="6" transform="rotate(0,94,346)"/><circle cx="94" cy="358" r="6" transform="rotate(0,94,358)"/><circle cx="94" cy="370" r="6" transform="rotate(0,94,370)"/><circle cx="106" cy="130" r="6" transform="rotate(0,106,130)"/><circle cx="106" cy="154" r="6" transform="rotate(0,106,154)"/><circle cx="106" cy="178" r="6" transform="rotate(0,106,178)"/><circle cx="106" cy="202" r="6" transform="rotate(0,106,202)"/><circle cx="106" cy="226" r="6" transform="rotate(0,106,226)"/><circle cx="106" cy="250" r="6" transform="rotate(0,106,250)"/><circle cx="106" cy="274" r="6" transform="rotate(0,106,274)"/><circle cx="106" cy="298" r="6" transform="rotate(0,106,298)"/><circle cx="106" cy="322" r="6" transform="rotate(0,106,322)"/><circle cx="106" cy="346" r="6" transform="rotate(0,106,346)"/><circle cx="106" cy="370" r="6" transform="rotate(0,106,370)"/><circle cx="118" cy="190" r="6" transform="rotate(0,118,190)"/><circle cx="118" cy="202" r="6" transform="rotate(0,118,202)"/><circle cx="118" cy="238" r="6" transform="rotate(0,118,238)"/><circle cx="118" cy="262" r="6" transform="rotate(0,118,262)"/><circle cx="118" cy="286" r="6" transform="rotate(0,118,286)"/><circle cx="118" cy="370" r="6" transform="rotate(0,118,370)"/><circle cx="130" cy="46" r="6" transform="rotate(0,130,46)"/><circle cx="130" cy="58" r="6" transform="rotate(0,130,58)"/><circle cx="130" cy="70" r="6" transform="rotate(0,130,70)"/><circle cx="130" cy="82" r="6" transform="rotate(0,130,82)"/><circle cx="130" cy="94" r="6" transform="rotate(0,130,94)"/><circle cx="130" cy="106" r="6" transform="rotate(0,130,106)"/><circle cx="130" cy="118" r="6" transform="rotate(0,130,118)"/><circle cx="130" cy="142" r="6" transform="rotate(0,130,142)"/><circle cx="130" cy="154" r="6" transform="rotate(0,130,154)"/><circle cx="130" cy="178" r="6" transform="rotate(0,130,178)"/><circle cx="130" cy="202" r="6" transform="rotate(0,130,202)"/><circle cx="130" cy="214" r="6" transform="rotate(0,130,214)"/><circle cx="130" cy="226" r="6" transform="rotate(0,130,226)"/><circle cx="130" cy="238" r="6" transform="rotate(0,130,238)"/><circle cx="130" cy="274" r="6" transform="rotate(0,130,274)"/><circle cx="130" cy="298" r="6" transform="rotate(0,130,298)"/><circle cx="130" cy="310" r="6" transform="rotate(0,130,310)"/><circle cx="130" cy="322" r="6" transform="rotate(0,130,322)"/><circle cx="130" cy="334" r="6" transform="rotate(0,130,334)"/><circle cx="130" cy="346" r="6" transform="rotate(0,130,346)"/><circle cx="130" cy="370" r="6" transform="rotate(0,130,370)"/><circle cx="130" cy="406" r="6" transform="rotate(0,130,406)"/><circle cx="130" cy="418" r="6" transform="rotate(0,130,418)"/><circle cx="130" cy="466" r="6" transform="rotate(0,130,466)"/><circle cx="142" cy="34" r="6" transform="rotate(0,142,34)"/><circle cx="142" cy="58" r="6" transform="rotate(0,142,58)"/><circle cx="142" cy="118" r="6" transform="rotate(0,142,118)"/><circle cx="142" cy="154" r="6" transform="rotate(0,142,154)"/><circle cx="142" cy="166" r="6" transform="rotate(0,142,166)"/><circle cx="142" cy="178" r="6" transform="rotate(0,142,178)"/><circle cx="142" cy="190" r="6" transform="rotate(0,142,190)"/><circle cx="142" cy="202" r="6" transform="rotate(0,142,202)"/><circle cx="142" cy="226" r="6" transform="rotate(0,142,226)"/><circle cx="142" cy="250" r="6" transform="rotate(0,142,250)"/><circle cx="142" cy="310" r="6" transform="rotate(0,142,310)"/><circle cx="142" cy="334" r="6" transform="rotate(0,142,334)"/><circle cx="142" cy="370" r="6" transform="rotate(0,142,370)"/><circle cx="142" cy="382" r="6" transform="rotate(0,142,382)"/><circle cx="142" cy="406" r="6" transform="rotate(0,142,406)"/><circle cx="142" cy="430" r="6" transform="rotate(0,142,430)"/><circle cx="154" cy="70" r="6" transform="rotate(0,154,70)"/><circle cx="154" cy="82" r="6" transform="rotate(0,154,82)"/><circle cx="154" cy="94" r="6" transform="rotate(0,154,94)"/><circle cx="154" cy="106" r="6" transform="rotate(0,154,106)"/><circle cx="154" cy="118" r="6" transform="rotate(0,154,118)"/><circle cx="154" cy="130" r="6" transform="rotate(0,154,130)"/><circle cx="154" cy="142" r="6" transform="rotate(0,154,142)"/><circle cx="154" cy="154" r="6" transform="rotate(0,154,154)"/><circle cx="154" cy="190" r="6" transform="rotate(0,154,190)"/><circle cx="154" cy="226" r="6" transform="rotate(0,154,226)"/><circle cx="154" cy="238" r="6" transform="rotate(0,154,238)"/><circle cx="154" cy="250" r="6" transform="rotate(0,154,250)"/><circle cx="154" cy="286" r="6" transform="rotate(0,154,286)"/><circle cx="154" cy="334" r="6" transform="rotate(0,154,334)"/><circle cx="154" cy="346" r="6" transform="rotate(0,154,346)"/><circle cx="154" cy="358" r="6" transform="rotate(0,154,358)"/><circle cx="154" cy="394" r="6" transform="rotate(0,154,394)"/><circle cx="154" cy="406" r="6" transform="rotate(0,154,406)"/><circle cx="154" cy="418" r="6" transform="rotate(0,154,418)"/><circle cx="154" cy="454" r="6" transform="rotate(0,154,454)"/><circle cx="154" cy="466" r="6" transform="rotate(0,154,466)"/><circle cx="166" cy="46" r="6" transform="rotate(0,166,46)"/><circle cx="166" cy="58" r="6" transform="rotate(0,166,58)"/><circle cx="166" cy="70" r="6" transform="rotate(0,166,70)"/><circle cx="166" cy="94" r="6" transform="rotate(0,166,94)"/><circle cx="166" cy="130" r="6" transform="rotate(0,166,130)"/><circle cx="166" cy="154" r="6" transform="rotate(0,166,154)"/><circle cx="166" cy="190" r="6" transform="rotate(0,166,190)"/><circle cx="166" cy="202" r="6" transform="rotate(0,166,202)"/><circle cx="166" cy="214" r="6" transform="rotate(0,166,214)"/><circle cx="166" cy="226" r="6" transform="rotate(0,166,226)"/><circle cx="166" cy="238" r="6" transform="rotate(0,166,238)"/><circle cx="166" cy="262" r="6" transform="rotate(0,166,262)"/><circle cx="166" cy="286" r="6" transform="rotate(0,166,286)"/><circle cx="166" cy="298" r="6" transform="rotate(0,166,298)"/><circle cx="166" cy="346" r="6" transform="rotate(0,166,346)"/><circle cx="166" cy="394" r="6" transform="rotate(0,166,394)"/><circle cx="166" cy="406" r="6" transform="rotate(0,166,406)"/><circle cx="166" cy="418" r="6" transform="rotate(0,166,418)"/><circle cx="166" cy="454" r="6" transform="rotate(0,166,454)"/><circle cx="166" cy="466" r="6" transform="rotate(0,166,466)"/><circle cx="178" cy="46" r="6" transform="rotate(0,178,46)"/><circle cx="178" cy="58" r="6" transform="rotate(0,178,58)"/><circle cx="178" cy="106" r="6" transform="rotate(0,178,106)"/><circle cx="178" cy="202" r="6" transform="rotate(0,178,202)"/><circle cx="178" cy="214" r="6" transform="rotate(0,178,214)"/><circle cx="178" cy="226" r="6" transform="rotate(0,178,226)"/><circle cx="178" cy="262" r="6" transform="rotate(0,178,262)"/><circle cx="178" cy="298" r="6" transform="rotate(0,178,298)"/><circle cx="178" cy="322" r="6" transform="rotate(0,178,322)"/><circle cx="178" cy="334" r="6" transform="rotate(0,178,334)"/><circle cx="178" cy="346" r="6" transform="rotate(0,178,346)"/><circle cx="178" cy="358" r="6" transform="rotate(0,178,358)"/><circle cx="178" cy="382" r="6" transform="rotate(0,178,382)"/><circle cx="178" cy="394" r="6" transform="rotate(0,178,394)"/><circle cx="178" cy="406" r="6" transform="rotate(0,178,406)"/><circle cx="178" cy="418" r="6" transform="rotate(0,178,418)"/><circle cx="178" cy="442" r="6" transform="rotate(0,178,442)"/><circle cx="178" cy="454" r="6" transform="rotate(0,178,454)"/><circle cx="190" cy="34" r="6" transform="rotate(0,190,34)"/><circle cx="190" cy="46" r="6" transform="rotate(0,190,46)"/><circle cx="190" cy="58" r="6" transform="rotate(0,190,58)"/><circle cx="190" cy="82" r="6" transform="rotate(0,190,82)"/><circle cx="190" cy="94" r="6" transform="rotate(0,190,94)"/><circle cx="190" cy="118" r="6" transform="rotate(0,190,118)"/><circle cx="190" cy="130" r="6" transform="rotate(0,190,130)"/><circle cx="190" cy="142" r="6" transform="rotate(0,190,142)"/><circle cx="190" cy="166" r="6" transform="rotate(0,190,166)"/><circle cx="190" cy="190" r="6" transform="rotate(0,190,190)"/><circle cx="190" cy="214" r="6" transform="rotate(0,190,214)"/><circle cx="190" cy="250" r="6" transform="rotate(0,190,250)"/><circle cx="190" cy="274" r="6" transform="rotate(0,190,274)"/><circle cx="190" cy="310" r="6" transform="rotate(0,190,310)"/><circle cx="190" cy="346" r="6" transform="rotate(0,190,346)"/><circle cx="190" cy="382" r="6" transform="rotate(0,190,382)"/><circle cx="190" cy="430" r="6" transform="rotate(0,190,430)"/><circle cx="190" cy="442" r="6" transform="rotate(0,190,442)"/><circle cx="202" cy="58" r="6" transform="rotate(0,202,58)"/><circle cx="202" cy="94" r="6" transform="rotate(0,202,94)"/><circle cx="202" cy="106" r="6" transform="rotate(0,202,106)"/><circle cx="202" cy="118" r="6" transform="rotate(0,202,118)"/><circle cx="202" cy="166" r="6" transform="rotate(0,202,166)"/><circle cx="202" cy="190" r="6" transform="rotate(0,202,190)"/><circle cx="202" cy="202" r="6" transform="rotate(0,202,202)"/><circle cx="202" cy="214" r="6" transform="rotate(0,202,214)"/><circle cx="202" cy="226" r="6" transform="rotate(0,202,226)"/><circle cx="202" cy="274" r="6" transform="rotate(0,202,274)"/><circle cx="202" cy="298" r="6" transform="rotate(0,202,298)"/><circle cx="202" cy="346" r="6" transform="rotate(0,202,346)"/><circle cx="202" cy="358" r="6" transform="rotate(0,202,358)"/><circle cx="202" cy="382" r="6" transform="rotate(0,202,382)"/><circle cx="202" cy="406" r="6" transform="rotate(0,202,406)"/><circle cx="202" cy="430" r="6" transform="rotate(0,202,430)"/><circle cx="202" cy="454" r="6" transform="rotate(0,202,454)"/><circle cx="202" cy="466" r="6" transform="rotate(0,202,466)"/><circle cx="214" cy="70" r="6" transform="rotate(0,214,70)"/><circle cx="214" cy="82" r="6" transform="rotate(0,214,82)"/><circle cx="214" cy="202" r="6" transform="rotate(0,214,202)"/><circle cx="214" cy="238" r="6" transform="rotate(0,214,238)"/><circle cx="214" cy="274" r="6" transform="rotate(0,214,274)"/><circle cx="214" cy="286" r="6" transform="rotate(0,214,286)"/><circle cx="214" cy="298" r="6" transform="rotate(0,214,298)"/><circle cx="214" cy="322" r="6" transform="rotate(0,214,322)"/><circle cx="214" cy="346" r="6" transform="rotate(0,214,346)"/><circle cx="214" cy="418" r="6" transform="rotate(0,214,418)"/><circle cx="214" cy="454" r="6" transform="rotate(0,214,454)"/><circle cx="214" cy="466" r="6" transform="rotate(0,214,466)"/><circle cx="226" cy="46" r="6" transform="rotate(0,226,46)"/><circle cx="226" cy="106" r="6" transform="rotate(0,226,106)"/><circle cx="226" cy="154" r="6" transform="rotate(0,226,154)"/><circle cx="226" cy="178" r="6" transform="rotate(0,226,178)"/><circle cx="226" cy="190" r="6" transform="rotate(0,226,190)"/><circle cx="226" cy="202" r="6" transform="rotate(0,226,202)"/><circle cx="226" cy="226" r="6" transform="rotate(0,226,226)"/><circle cx="226" cy="286" r="6" transform="rotate(0,226,286)"/><circle cx="226" cy="322" r="6" transform="rotate(0,226,322)"/><circle cx="226" cy="334" r="6" transform="rotate(0,226,334)"/><circle cx="226" cy="346" r="6" transform="rotate(0,226,346)"/><circle cx="226" cy="358" r="6" transform="rotate(0,226,358)"/><circle cx="226" cy="382" r="6" transform="rotate(0,226,382)"/><circle cx="226" cy="394" r="6" transform="rotate(0,226,394)"/><circle cx="226" cy="418" r="6" transform="rotate(0,226,418)"/><circle cx="226" cy="442" r="6" transform="rotate(0,226,442)"/><circle cx="226" cy="454" r="6" transform="rotate(0,226,454)"/><circle cx="226" cy="466" r="6" transform="rotate(0,226,466)"/><circle cx="238" cy="34" r="6" transform="rotate(0,238,34)"/><circle cx="238" cy="82" r="6" transform="rotate(0,238,82)"/><circle cx="238" cy="190" r="6" transform="rotate(0,238,190)"/><circle cx="238" cy="202" r="6" transform="rotate(0,238,202)"/><circle cx="238" cy="238" r="6" transform="rotate(0,238,238)"/><circle cx="238" cy="274" r="6" transform="rotate(0,238,274)"/><circle cx="238" cy="286" r="6" transform="rotate(0,238,286)"/><circle cx="238" cy="310" r="6" transform="rotate(0,238,310)"/><circle cx="238" cy="334" r="6" transform="rotate(0,238,334)"/><circle cx="238" cy="370" r="6" transform="rotate(0,238,370)"/><circle cx="238" cy="382" r="6" transform="rotate(0,238,382)"/><circle cx="238" cy="406" r="6" transform="rotate(0,238,406)"/><circle cx="238" cy="442" r="6" transform="rotate(0,238,442)"/><circle cx="250" cy="34" r="6" transform="rotate(0,250,34)"/><circle cx="250" cy="46" r="6" transform="rotate(0,250,46)"/><circle cx="250" cy="70" r="6" transform="rotate(0,250,70)"/><circle cx="250" cy="94" r="6" transform="rotate(0,250,94)"/><circle cx="250" cy="106" r="6" transform="rotate(0,250,106)"/><circle cx="250" cy="130" r="6" transform="rotate(0,250,130)"/><circle cx="250" cy="142" r="6" transform="rotate(0,250,142)"/><circle cx="250" cy="154" r="6" transform="rotate(0,250,154)"/><circle cx="250" cy="166" r="6" transform="rotate(0,250,166)"/><circle cx="250" cy="190" r="6" transform="rotate(0,250,190)"/><circle cx="250" cy="202" r="6" transform="rotate(0,250,202)"/><circle cx="250" cy="214" r="6" transform="rotate(0,250,214)"/><circle cx="250" cy="226" r="6" transform="rotate(0,250,226)"/><circle cx="250" cy="238" r="6" transform="rotate(0,250,238)"/><circle cx="250" cy="250" r="6" transform="rotate(0,250,250)"/><circle cx="250" cy="274" r="6" transform="rotate(0,250,274)"/><circle cx="250" cy="322" r="6" transform="rotate(0,250,322)"/><circle cx="250" cy="334" r="6" transform="rotate(0,250,334)"/><circle cx="250" cy="346" r="6" transform="rotate(0,250,346)"/><circle cx="250" cy="358" r="6" transform="rotate(0,250,358)"/><circle cx="250" cy="370" r="6" transform="rotate(0,250,370)"/><circle cx="250" cy="394" r="6" transform="rotate(0,250,394)"/><circle cx="250" cy="406" r="6" transform="rotate(0,250,406)"/><circle cx="250" cy="430" r="6" transform="rotate(0,250,430)"/><circle cx="250" cy="442" r="6" transform="rotate(0,250,442)"/><circle cx="250" cy="454" r="6" transform="rotate(0,250,454)"/><circle cx="250" cy="466" r="6" transform="rotate(0,250,466)"/><circle cx="262" cy="46" r="6" transform="rotate(0,262,46)"/><circle cx="262" cy="58" r="6" transform="rotate(0,262,58)"/><circle cx="262" cy="70" r="6" transform="rotate(0,262,70)"/><circle cx="262" cy="82" r="6" transform="rotate(0,262,82)"/><circle cx="262" cy="94" r="6" transform="rotate(0,262,94)"/><circle cx="262" cy="118" r="6" transform="rotate(0,262,118)"/><circle cx="262" cy="142" r="6" transform="rotate(0,262,142)"/><circle cx="262" cy="154" r="6" transform="rotate(0,262,154)"/><circle cx="262" cy="166" r="6" transform="rotate(0,262,166)"/><circle cx="262" cy="190" r="6" transform="rotate(0,262,190)"/><circle cx="262" cy="286" r="6" transform="rotate(0,262,286)"/><circle cx="262" cy="298" r="6" transform="rotate(0,262,298)"/><circle cx="262" cy="358" r="6" transform="rotate(0,262,358)"/><circle cx="262" cy="370" r="6" transform="rotate(0,262,370)"/><circle cx="262" cy="394" r="6" transform="rotate(0,262,394)"/><circle cx="262" cy="406" r="6" transform="rotate(0,262,406)"/><circle cx="274" cy="70" r="6" transform="rotate(0,274,70)"/><circle cx="274" cy="82" r="6" transform="rotate(0,274,82)"/><circle cx="274" cy="94" r="6" transform="rotate(0,274,94)"/><circle cx="274" cy="106" r="6" transform="rotate(0,274,106)"/><circle cx="274" cy="130" r="6" transform="rotate(0,274,130)"/><circle cx="274" cy="142" r="6" transform="rotate(0,274,142)"/><circle cx="274" cy="190" r="6" transform="rotate(0,274,190)"/><circle cx="274" cy="214" r="6" transform="rotate(0,274,214)"/><circle cx="274" cy="226" r="6" transform="rotate(0,274,226)"/><circle cx="274" cy="238" r="6" transform="rotate(0,274,238)"/><circle cx="274" cy="250" r="6" transform="rotate(0,274,250)"/><circle cx="274" cy="274" r="6" transform="rotate(0,274,274)"/><circle cx="274" cy="298" r="6" transform="rotate(0,274,298)"/><circle cx="274" cy="310" r="6" transform="rotate(0,274,310)"/><circle cx="274" cy="322" r="6" transform="rotate(0,274,322)"/><circle cx="274" cy="334" r="6" transform="rotate(0,274,334)"/><circle cx="274" cy="346" r="6" transform="rotate(0,274,346)"/><circle cx="274" cy="382" r="6" transform="rotate(0,274,382)"/><circle cx="274" cy="394" r="6" transform="rotate(0,274,394)"/><circle cx="274" cy="406" r="6" transform="rotate(0,274,406)"/><circle cx="274" cy="418" r="6" transform="rotate(0,274,418)"/><circle cx="274" cy="430" r="6" transform="rotate(0,274,430)"/><circle cx="274" cy="442" r="6" transform="rotate(0,274,442)"/><circle cx="286" cy="34" r="6" transform="rotate(0,286,34)"/><circle cx="286" cy="94" r="6" transform="rotate(0,286,94)"/><circle cx="286" cy="142" r="6" transform="rotate(0,286,142)"/><circle cx="286" cy="250" r="6" transform="rotate(0,286,250)"/><circle cx="286" cy="274" r="6" transform="rotate(0,286,274)"/><circle cx="286" cy="310" r="6" transform="rotate(0,286,310)"/><circle cx="286" cy="406" r="6" transform="rotate(0,286,406)"/><circle cx="298" cy="34" r="6" transform="rotate(0,298,34)"/><circle cx="298" cy="70" r="6" transform="rotate(0,298,70)"/><circle cx="298" cy="82" r="6" transform="rotate(0,298,82)"/><circle cx="298" cy="94" r="6" transform="rotate(0,298,94)"/><circle cx="298" cy="106" r="6" transform="rotate(0,298,106)"/><circle cx="298" cy="118" r="6" transform="rotate(0,298,118)"/><circle cx="298" cy="130" r="6" transform="rotate(0,298,130)"/><circle cx="298" cy="178" r="6" transform="rotate(0,298,178)"/><circle cx="298" cy="226" r="6" transform="rotate(0,298,226)"/><circle cx="298" cy="250" r="6" transform="rotate(0,298,250)"/><circle cx="298" cy="262" r="6" transform="rotate(0,298,262)"/><circle cx="298" cy="286" r="6" transform="rotate(0,298,286)"/><circle cx="298" cy="298" r="6" transform="rotate(0,298,298)"/><circle cx="298" cy="322" r="6" transform="rotate(0,298,322)"/><circle cx="298" cy="334" r="6" transform="rotate(0,298,334)"/><circle cx="298" cy="346" r="6" transform="rotate(0,298,346)"/><circle cx="298" cy="358" r="6" transform="rotate(0,298,358)"/><circle cx="298" cy="394" r="6" transform="rotate(0,298,394)"/><circle cx="298" cy="454" r="6" transform="rotate(0,298,454)"/><circle cx="298" cy="466" r="6" transform="rotate(0,298,466)"/><circle cx="310" cy="46" r="6" transform="rotate(0,310,46)"/><circle cx="310" cy="58" r="6" transform="rotate(0,310,58)"/><circle cx="310" cy="82" r="6" transform="rotate(0,310,82)"/><circle cx="310" cy="94" r="6" transform="rotate(0,310,94)"/><circle cx="310" cy="118" r="6" transform="rotate(0,310,118)"/><circle cx="310" cy="130" r="6" transform="rotate(0,310,130)"/><circle cx="310" cy="142" r="6" transform="rotate(0,310,142)"/><circle cx="310" cy="178" r="6" transform="rotate(0,310,178)"/><circle cx="310" cy="190" r="6" transform="rotate(0,310,190)"/><circle cx="310" cy="226" r="6" transform="rotate(0,310,226)"/><circle cx="310" cy="238" r="6" transform="rotate(0,310,238)"/><circle cx="310" cy="262" r="6" transform="rotate(0,310,262)"/><circle cx="310" cy="274" r="6" transform="rotate(0,310,274)"/><circle cx="310" cy="286" r="6" transform="rotate(0,310,286)"/><circle cx="310" cy="394" r="6" transform="rotate(0,310,394)"/><circle cx="310" cy="406" r="6" transform="rotate(0,310,406)"/><circle cx="310" cy="430" r="6" transform="rotate(0,310,430)"/><circle cx="322" cy="34" r="6" transform="rotate(0,322,34)"/><circle cx="322" cy="46" r="6" transform="rotate(0,322,46)"/><circle cx="322" cy="82" r="6" transform="rotate(0,322,82)"/><circle cx="322" cy="106" r="6" transform="rotate(0,322,106)"/><circle cx="322" cy="118" r="6" transform="rotate(0,322,118)"/><circle cx="322" cy="130" r="6" transform="rotate(0,322,130)"/><circle cx="322" cy="202" r="6" transform="rotate(0,322,202)"/><circle cx="322" cy="238" r="6" transform="rotate(0,322,238)"/><circle cx="322" cy="250" r="6" transform="rotate(0,322,250)"/><circle cx="322" cy="262" r="6" transform="rotate(0,322,262)"/><circle cx="322" cy="274" r="6" transform="rotate(0,322,274)"/><circle cx="322" cy="298" r="6" transform="rotate(0,322,298)"/><circle cx="322" cy="334" r="6" transform="rotate(0,322,334)"/><circle cx="322" cy="346" r="6" transform="rotate(0,322,346)"/><circle cx="322" cy="370" r="6" transform="rotate(0,322,370)"/><circle cx="322" cy="382" r="6" transform="rotate(0,322,382)"/><circle cx="322" cy="394" r="6" transform="rotate(0,322,394)"/><circle cx="322" cy="418" r="6" transform="rotate(0,322,418)"/><circle cx="322" cy="442" r="6" transform="rotate(0,322,442)"/><circle cx="322" cy="454" r="6" transform="rotate(0,322,454)"/><circle cx="334" cy="34" r="6" transform="rotate(0,334,34)"/><circle cx="334" cy="46" r="6" transform="rotate(0,334,46)"/><circle cx="334" cy="118" r="6" transform="rotate(0,334,118)"/><circle cx="334" cy="130" r="6" transform="rotate(0,334,130)"/><circle cx="334" cy="154" r="6" transform="rotate(0,334,154)"/><circle cx="334" cy="178" r="6" transform="rotate(0,334,178)"/><circle cx="334" cy="190" r="6" transform="rotate(0,334,190)"/><circle cx="334" cy="202" r="6" transform="rotate(0,334,202)"/><circle cx="334" cy="226" r="6" transform="rotate(0,334,226)"/><circle cx="334" cy="250" r="6" transform="rotate(0,334,250)"/><circle cx="334" cy="286" r="6" transform="rotate(0,334,286)"/><circle cx="334" cy="310" r="6" transform="rotate(0,334,310)"/><circle cx="334" cy="370" r="6" transform="rotate(0,334,370)"/><circle cx="334" cy="430" r="6" transform="rotate(0,334,430)"/><circle cx="346" cy="34" r="6" transform="rotate(0,346,34)"/><circle cx="346" cy="70" r="6" transform="rotate(0,346,70)"/><circle cx="346" cy="94" r="6" transform="rotate(0,346,94)"/><circle cx="346" cy="106" r="6" transform="rotate(0,346,106)"/><circle cx="346" cy="118" r="6" transform="rotate(0,346,118)"/><circle cx="346" cy="130" r="6" transform="rotate(0,346,130)"/><circle cx="346" cy="142" r="6" transform="rotate(0,346,142)"/><circle cx="346" cy="154" r="6" transform="rotate(0,346,154)"/><circle cx="346" cy="178" r="6" transform="rotate(0,346,178)"/><circle cx="346" cy="226" r="6" transform="rotate(0,346,226)"/><circle cx="346" cy="298" r="6" transform="rotate(0,346,298)"/><circle cx="346" cy="322" r="6" transform="rotate(0,346,322)"/><circle cx="346" cy="346" r="6" transform="rotate(0,346,346)"/><circle cx="346" cy="358" r="6" transform="rotate(0,346,358)"/><circle cx="346" cy="370" r="6" transform="rotate(0,346,370)"/><circle cx="346" cy="394" r="6" transform="rotate(0,346,394)"/><circle cx="346" cy="430" r="6" transform="rotate(0,346,430)"/><circle cx="346" cy="466" r="6" transform="rotate(0,346,466)"/><circle cx="358" cy="34" r="6" transform="rotate(0,358,34)"/><circle cx="358" cy="70" r="6" transform="rotate(0,358,70)"/><circle cx="358" cy="118" r="6" transform="rotate(0,358,118)"/><circle cx="358" cy="154" r="6" transform="rotate(0,358,154)"/><circle cx="358" cy="166" r="6" transform="rotate(0,358,166)"/><circle cx="358" cy="190" r="6" transform="rotate(0,358,190)"/><circle cx="358" cy="202" r="6" transform="rotate(0,358,202)"/><circle cx="358" cy="214" r="6" transform="rotate(0,358,214)"/><circle cx="358" cy="238" r="6" transform="rotate(0,358,238)"/><circle cx="358" cy="262" r="6" transform="rotate(0,358,262)"/><circle cx="358" cy="274" r="6" transform="rotate(0,358,274)"/><circle cx="358" cy="286" r="6" transform="rotate(0,358,286)"/><circle cx="358" cy="322" r="6" transform="rotate(0,358,322)"/><circle cx="358" cy="370" r="6" transform="rotate(0,358,370)"/><circle cx="358" cy="382" r="6" transform="rotate(0,358,382)"/><circle cx="358" cy="454" r="6" transform="rotate(0,358,454)"/><circle cx="358" cy="466" r="6" transform="rotate(0,358,466)"/><circle cx="370" cy="34" r="6" transform="rotate(0,370,34)"/><circle cx="370" cy="58" r="6" transform="rotate(0,370,58)"/><circle cx="370" cy="70" r="6" transform="rotate(0,370,70)"/><circle cx="370" cy="82" r="6" transform="rotate(0,370,82)"/><circle cx="370" cy="94" r="6" transform="rotate(0,370,94)"/><circle cx="370" cy="106" r="6" transform="rotate(0,370,106)"/><circle cx="370" cy="118" r="6" transform="rotate(0,370,118)"/><circle cx="370" cy="142" r="6" transform="rotate(0,370,142)"/><circle cx="370" cy="190" r="6" transform="rotate(0,370,190)"/><circle cx="370" cy="202" r="6" transform="rotate(0,370,202)"/><circle cx="370" cy="214" r="6" transform="rotate(0,370,214)"/><circle cx="370" cy="238" r="6" transform="rotate(0,370,238)"/><circle cx="370" cy="262" r="6" transform="rotate(0,370,262)"/><circle cx="370" cy="298" r="6" transform="rotate(0,370,298)"/><circle cx="370" cy="310" r="6" transform="rotate(0,370,310)"/><circle cx="370" cy="322" r="6" transform="rotate(0,370,322)"/><circle cx="370" cy="334" r="6" transform="rotate(0,370,334)"/><circle cx="370" cy="346" r="6" transform="rotate(0,370,346)"/><circle cx="370" cy="370" r="6" transform="rotate(0,370,370)"/><circle cx="370" cy="382" r="6" transform="rotate(0,370,382)"/><circle cx="370" cy="394" r="6" transform="rotate(0,370,394)"/><circle cx="370" cy="406" r="6" transform="rotate(0,370,406)"/><circle cx="370" cy="418" r="6" transform="rotate(0,370,418)"/><circle cx="370" cy="442" r="6" transform="rotate(0,370,442)"/><circle cx="382" cy="130" r="6" transform="rotate(0,382,130)"/><circle cx="382" cy="154" r="6" transform="rotate(0,382,154)"/><circle cx="382" cy="190" r="6" transform="rotate(0,382,190)"/><circle cx="382" cy="226" r="6" transform="rotate(0,382,226)"/><circle cx="382" cy="238" r="6" transform="rotate(0,382,238)"/><circle cx="382" cy="250" r="6" transform="rotate(0,382,250)"/><circle cx="382" cy="262" r="6" transform="rotate(0,382,262)"/><circle cx="382" cy="274" r="6" transform="rotate(0,382,274)"/><circle cx="382" cy="298" r="6" transform="rotate(0,382,298)"/><circle cx="382" cy="310" r="6" transform="rotate(0,382,310)"/><circle cx="382" cy="346" r="6" transform="rotate(0,382,346)"/><circle cx="382" cy="370" r="6" transform="rotate(0,382,370)"/><circle cx="382" cy="418" r="6" transform="rotate(0,382,418)"/><circle cx="394" cy="130" r="6" transform="rotate(0,394,130)"/><circle cx="394" cy="142" r="6" transform="rotate(0,394,142)"/><circle cx="394" cy="154" r="6" transform="rotate(0,394,154)"/><circle cx="394" cy="166" r="6" transform="rotate(0,394,166)"/><circle cx="394" cy="190" r="6" transform="rotate(0,394,190)"/><circle cx="394" cy="202" r="6" transform="rotate(0,394,202)"/><circle cx="394" cy="214" r="6" transform="rotate(0,394,214)"/><circle cx="394" cy="226" r="6" transform="rotate(0,394,226)"/><circle cx="394" cy="274" r="6" transform="rotate(0,394,274)"/><circle cx="394" cy="298" r="6" transform="rotate(0,394,298)"/><circle cx="394" cy="322" r="6" transform="rotate(0,394,322)"/><circle cx="394" cy="334" r="6" transform="rotate(0,394,334)"/><circle cx="394" cy="370" r="6" transform="rotate(0,394,370)"/><circle cx="394" cy="394" r="6" transform="rotate(0,394,394)"/><circle cx="394" cy="418" r="6" transform="rotate(0,394,418)"/><circle cx="394" cy="430" r="6" transform="rotate(0,394,430)"/><circle cx="394" cy="454" r="6" transform="rotate(0,394,454)"/><circle cx="394" cy="466" r="6" transform="rotate(0,394,466)"/><circle cx="406" cy="130" r="6" transform="rotate(0,406,130)"/><circle cx="406" cy="142" r="6" transform="rotate(0,406,142)"/><circle cx="406" cy="154" r="6" transform="rotate(0,406,154)"/><circle cx="406" cy="202" r="6" transform="rotate(0,406,202)"/><circle cx="406" cy="226" r="6" transform="rotate(0,406,226)"/><circle cx="406" cy="262" r="6" transform="rotate(0,406,262)"/><circle cx="406" cy="274" r="6" transform="rotate(0,406,274)"/><circle cx="406" cy="310" r="6" transform="rotate(0,406,310)"/><circle cx="406" cy="322" r="6" transform="rotate(0,406,322)"/><circle cx="406" cy="346" r="6" transform="rotate(0,406,346)"/><circle cx="406" cy="358" r="6" transform="rotate(0,406,358)"/><circle cx="406" cy="370" r="6" transform="rotate(0,406,370)"/><circle cx="406" cy="418" r="6" transform="rotate(0,406,418)"/><circle cx="406" cy="454" r="6" transform="rotate(0,406,454)"/><circle cx="418" cy="130" r="6" transform="rotate(0,418,130)"/><circle cx="418" cy="154" r="6" transform="rotate(0,418,154)"/><circle cx="418" cy="166" r="6" transform="rotate(0,418,166)"/><circle cx="418" cy="178" r="6" transform="rotate(0,418,178)"/><circle cx="418" cy="190" r="6" transform="rotate(0,418,190)"/><circle cx="418" cy="202" r="6" transform="rotate(0,418,202)"/><circle cx="418" cy="214" r="6" transform="rotate(0,418,214)"/><circle cx="418" cy="226" r="6" transform="rotate(0,418,226)"/><circle cx="418" cy="238" r="6" transform="rotate(0,418,238)"/><circle cx="418" cy="250" r="6" transform="rotate(0,418,250)"/><circle cx="418" cy="262" r="6" transform="rotate(0,418,262)"/><circle cx="418" cy="274" r="6" transform="rotate(0,418,274)"/><circle cx="418" cy="286" r="6" transform="rotate(0,418,286)"/><circle cx="418" cy="298" r="6" transform="rotate(0,418,298)"/><circle cx="418" cy="322" r="6" transform="rotate(0,418,322)"/><circle cx="418" cy="334" r="6" transform="rotate(0,418,334)"/><circle cx="418" cy="346" r="6" transform="rotate(0,418,346)"/><circle cx="418" cy="358" r="6" transform="rotate(0,418,358)"/><circle cx="418" cy="370" r="6" transform="rotate(0,418,370)"/><circle cx="418" cy="382" r="6" transform="rotate(0,418,382)"/><circle cx="418" cy="394" r="6" transform="rotate(0,418,394)"/><circle cx="418" cy="406" r="6" transform="rotate(0,418,406)"/><circle cx="418" cy="418" r="6" transform="rotate(0,418,418)"/><circle cx="418" cy="442" r="6" transform="rotate(0,418,442)"/><circle cx="418" cy="466" r="6" transform="rotate(0,418,466)"/><circle cx="430" cy="130" r="6" transform="rotate(0,430,130)"/><circle cx="430" cy="178" r="6" transform="rotate(0,430,178)"/><circle cx="430" cy="190" r="6" transform="rotate(0,430,190)"/><circle cx="430" cy="202" r="6" transform="rotate(0,430,202)"/><circle cx="430" cy="214" r="6" transform="rotate(0,430,214)"/><circle cx="430" cy="226" r="6" transform="rotate(0,430,226)"/><circle cx="430" cy="310" r="6" transform="rotate(0,430,310)"/><circle cx="430" cy="358" r="6" transform="rotate(0,430,358)"/><circle cx="430" cy="370" r="6" transform="rotate(0,430,370)"/><circle cx="430" cy="394" r="6" transform="rotate(0,430,394)"/><circle cx="430" cy="406" r="6" transform="rotate(0,430,406)"/><circle cx="430" cy="418" r="6" transform="rotate(0,430,418)"/><circle cx="430" cy="454" r="6" transform="rotate(0,430,454)"/><circle cx="442" cy="130" r="6" transform="rotate(0,442,130)"/><circle cx="442" cy="154" r="6" transform="rotate(0,442,154)"/><circle cx="442" cy="166" r="6" transform="rotate(0,442,166)"/><circle cx="442" cy="178" r="6" transform="rotate(0,442,178)"/><circle cx="442" cy="190" r="6" transform="rotate(0,442,190)"/><circle cx="442" cy="250" r="6" transform="rotate(0,442,250)"/><circle cx="442" cy="274" r="6" transform="rotate(0,442,274)"/><circle cx="442" cy="286" r="6" transform="rotate(0,442,286)"/><circle cx="442" cy="346" r="6" transform="rotate(0,442,346)"/><circle cx="442" cy="382" r="6" transform="rotate(0,442,382)"/><circle cx="442" cy="430" r="6" transform="rotate(0,442,430)"/><circle cx="442" cy="466" r="6" transform="rotate(0,442,466)"/><circle cx="454" cy="130" r="6" transform="rotate(0,454,130)"/><circle cx="454" cy="154" r="6" transform="rotate(0,454,154)"/><circle cx="454" cy="166" r="6" transform="rotate(0,454,166)"/><circle cx="454" cy="190" r="6" transform="rotate(0,454,190)"/><circle cx="454" cy="214" r="6" transform="rotate(0,454,214)"/><circle cx="454" cy="226" r="6" transform="rotate(0,454,226)"/><circle cx="454" cy="250" r="6" transform="rotate(0,454,250)"/><circle cx="454" cy="286" r="6" transform="rotate(0,454,286)"/><circle cx="454" cy="298" r="6" transform="rotate(0,454,298)"/><circle cx="454" cy="310" r="6" transform="rotate(0,454,310)"/><circle cx="454" cy="346" r="6" transform="rotate(0,454,346)"/><circle cx="454" cy="358" r="6" transform="rotate(0,454,358)"/><circle cx="454" cy="370" r="6" transform="rotate(0,454,370)"/><circle cx="454" cy="382" r="6" transform="rotate(0,454,382)"/><circle cx="454" cy="394" r="6" transform="rotate(0,454,394)"/><circle cx="454" cy="466" r="6" transform="rotate(0,454,466)"/><circle cx="466" cy="166" r="6" transform="rotate(0,466,166)"/><circle cx="466" cy="178" r="6" transform="rotate(0,466,178)"/><circle cx="466" cy="190" r="6" transform="rotate(0,466,190)"/><circle cx="466" cy="202" r="6" transform="rotate(0,466,202)"/><circle cx="466" cy="214" r="6" transform="rotate(0,466,214)"/><circle cx="466" cy="238" r="6" transform="rotate(0,466,238)"/><circle cx="466" cy="250" r="6" transform="rotate(0,466,250)"/><circle cx="466" cy="310" r="6" transform="rotate(0,466,310)"/><circle cx="466" cy="334" r="6" transform="rotate(0,466,334)"/><circle cx="466" cy="346" r="6" transform="rotate(0,466,346)"/><circle cx="466" cy="358" r="6" transform="rotate(0,466,358)"/><circle cx="466" cy="394" r="6" transform="rotate(0,466,394)"/><circle cx="466" cy="430" r="6" transform="rotate(0,466,430)"/><circle cx="466" cy="442" r="6" transform="rotate(0,466,442)"/><circle cx="466" cy="454" r="6" transform="rotate(0,466,454)"/><circle cx="466" cy="466" r="6" transform="rotate(0,466,466)"/><path clip-rule="evenodd" d="M 28 58v 24a 30 30, 0, 0, 0, 30 30h 24a 30 30, 0, 0, 0, 30 -30v -24a 30 30, 0, 0, 0, -30 -30h -24a 30 30, 0, 0, 0, -30 30M 58 40h 24a 18 18, 0, 0, 1, 18 18v 24a 18 18, 0, 0, 1, -18 18h -24a 18 18, 0, 0, 1, -18 -18v -24a 18 18, 0, 0, 1, 18 -18" transform="rotate(0,70,70)"/><circle cx="70" cy="70" r="18" transform="rotate(0,70,70)"/><path clip-rule="evenodd" d="M 388 58v 24a 30 30, 0, 0, 0, 30 30h 24a 30 30, 0, 0, 0, 30 -30v -24a 30 30, 0, 0, 0, -30 -30h -24a 30 30, 0, 0, 0, -30 30M 418 40h 24a 18 18, 0, 0, 1, 18 18v 24a 18 18, 0, 0, 1, -18 18h -24a 18 18, 0, 0, 1, -18 -18v -24a 18 18, 0, 0, 1, 18 -18" transform="rotate(90,430,70)"/><circle cx="430" cy="70" r="18" transform="rotate(90,430,70)"/><path clip-rule="evenodd" d="M 28 418v 24a 30 30, 0, 0, 0, 30 30h 24a 30 30, 0, 0, 0, 30 -30v -24a 30 30, 0, 0, 0, -30 -30h -24a 30 30, 0, 0, 0, -30 30M 58 400h 24a 18 18, 0, 0, 1, 18 18v 24a 18 18, 0, 0, 1, -18 18h -24a 18 18, 0, 0, 1, -18 -18v -24a 18 18, 0, 0, 1, 18 -18" transform="rotate(-90,70,430)"/><circle cx="70" cy="430" r="18" transform="rotate(-90,70,430)"/></clipPath></defs><rect x="0" y="0" height="500" width="500" clip-path="url('#clip-path-background-color')" fill="#fff"/><rect x="0" y="0" height="500" width="500" clip-path="url('#clip-path-dot-color')" fill="#000000"/></svg>
